STARTFONT 2.1
COMMENT
COMMENT Converted from OpenType font "Q:\font stuff\winfont\CCPhasesOnStun.ttf" by "otf2bdf 3.0".
COMMENT
FONT -FreeType-CCPhasesOnStun-Medium-R-Normal--96-960-72-72-P-398-ISO10646-1
SIZE 96 72 72
FONTBOUNDINGBOX 146 87 -3 -6
STARTPROPERTIES 19
FOUNDRY "FreeType"
FAMILY_NAME "CCPhasesOnStun"
WEIGHT_NAME "Medium"
SLANT "R"
SETWIDTH_NAME "Normal"
ADD_STYLE_NAME ""
PIXEL_SIZE 96
POINT_SIZE 960
RESOLUTION_X 72
RESOLUTION_Y 72
SPACING "P"
AVERAGE_WIDTH 398
CHARSET_REGISTRY "ISO10646"
CHARSET_ENCODING "1"
FONT_ASCENT 0
FONT_DESCENT 0
COPYRIGHT "\2511995 Comicraft. All Rights Reserved. Unauthorized duplication and/or use is a violation of applicable laws."
_OTF_FONTFILE "Q:\font stuff\winfont\CCPhasesOnStun.ttf"
_OTF_PSNAME "CCPhasesOnStun"
ENDPROPERTIES
CHARS 105
STARTCHAR 0020
ENCODING 32
SWIDTH 218 0
DWIDTH 21 0
BBX 0 0 0 0
BITMAP
ENDCHAR
STARTCHAR 0021
ENCODING 33
SWIDTH 208 0
DWIDTH 20 0
BBX 21 77 0 0
BITMAP
FFFFF8
FFFFF8
FFFFF8
FFFFF8
F00078
F00078
F00078
F00078
F00078
F00078
F00078
F00078
F00078
F00078
F00078
F00078
F00078
F00078
F00078
F00078
F00078
F00078
F00078
F00078
F00078
F00078
F00078
F00078
F00078
F00078
F00078
F00078
F00078
F00078
F00078
F00078
F00078
F00078
F00078
F00078
F00078
F00078
F00078
F00078
F00078
F00078
F00078
F00078
F00078
F00078
F00078
F00078
F00078
F00078
F00078
F00078
F00078
F00078
F00078
F00078
FFFFF8
FFFFF8
FFFFF8
FFFFF8
FFFFF8
F00078
F00078
F00078
F00078
F00078
F00078
F00078
F00078
FFFFF8
FFFFF8
FFFFF8
FFFFF8
ENDCHAR
STARTCHAR 0022
ENCODING 34
SWIDTH 343 0
DWIDTH 33 0
BBX 35 30 -1 47
BITMAP
FFFFFFFFE0
FFFFFFFFE0
FFFFFFFFE0
FFFFFFFFE0
F001F801E0
F001F801E0
F001F801E0
F001F801E0
F001F801E0
F001F801E0
F001F801E0
F001F801E0
F001F801E0
F001F801E0
F001F801E0
F001F801E0
F001F801E0
F001F801E0
F001F801E0
F001F801E0
F001F801E0
F001F801E0
F001F801E0
F001F801E0
F001F801E0
F001F801E0
FFFFFFFFE0
FFFFFFFFE0
FFFFFFFFE0
FFFFFFFFE0
ENDCHAR
STARTCHAR 0023
ENCODING 35
SWIDTH 437 0
DWIDTH 42 0
BBX 43 54 -1 18
BITMAP
01FFFFFFFC00
01FFFFFFFC00
01FFFFFFFC00
01E00F803C00
01E00F803C00
01E00F803C00
01E00F803C00
01E00F803C00
01E00F803C00
01E00F803C00
FFE00F803FE0
FFE00F803FE0
FFE00F803FE0
F000000001E0
F000000001E0
F000000001E0
F000000001E0
F000000001E0
F000000001E0
F000000001E0
F000000001E0
F000000001E0
F00000003FE0
FFE00FC03FE0
FFE00FC03FE0
FFE00FC03FE0
FFE00FC03C00
01E00FC03C00
01E00FC03C00
FFE00FC03FE0
FFE00FC03FE0
FFE00FC03FE0
F000000001E0
F000000001E0
F000000001E0
F000000001E0
F000000001E0
F000000001E0
F000000001E0
F000000001E0
F000000001E0
FFE000003FE0
FFE00FC03FE0
FFE00FC03FE0
FFE00FC03FE0
01E00FC03FE0
01E00FC03C00
01E00FC03C00
01E00FC03C00
01E00FC03C00
01FFFFFFFC00
01FFFFFFFC00
01FFFFFFFC00
01FFFFFFFC00
ENDCHAR
STARTCHAR 0024
ENCODING 36
SWIDTH 416 0
DWIDTH 40 0
BBX 42 77 -1 0
BITMAP
0007FFF00000
0007FFF00000
0007FFF00000
0007FFF00000
000780F00000
000780F00000
000780F00000
000780F00000
01FF80FFE000
0FFF80FFF800
1FFF80FFFE00
3FFF80FFFF00
7E0000003F80
780000000F80
F000000007C0
F000000003C0
F000000003C0
F000000003C0
F000000003C0
F000000003C0
F0007F0003C0
F0007F0003C0
F0007F0003C0
F0007F0003C0
F0007F0003C0
F0007F0003C0
F0007F0003C0
F0007F0003C0
F0007F0003C0
F0007F0003C0
F0007F0003C0
F0007F0003C0
F0007F0003C0
F0007F0003C0
F0007F0003C0
F0007FFFFFC0
F0007FFFFFC0
F0007FFFFFC0
F0007FFFFFC0
F0007FFFFF00
F00000001F80
F000000007C0
F000000003C0
F000000003C0
F800000003C0
7C00000003C0
3F00000003C0
1FFFFF0003C0
FFFFFF0003C0
FFFFFF0003C0
FFFFFF0003C0
FFFFFF0003C0
F0007F0003C0
F0007F0003C0
F0007F0003C0
F0007F0003C0
F0007F0003C0
F0007F0003C0
F000000003C0
F000000003C0
F000000003C0
F000000003C0
F000000003C0
F80000000F80
7E0000003F80
3FFF80FFFF00
1FFF80FFFE00
0FFF80FFF800
01FF80FFE000
000780F00000
000780F00000
000780F00000
000780F00000
0007FFF00000
0007FFF00000
0007FFF00000
0007FFF00000
ENDCHAR
STARTCHAR 0025
ENCODING 37
SWIDTH 416 0
DWIDTH 40 0
BBX 45 77 -3 0
BITMAP
01FFFFE3FFF8
07FFFFE7FFF8
0FFFFFE7FFF0
1FFFFFE7FFF0
3E0001EF00F0
3C0001EF00E0
3C0001FF01E0
3C0001FE01E0
3C0F01FE03C0
3C0F01FC03C0
3C0F01FC0380
3C0F01FC0780
3C0F01F80780
3C0F01F80700
3C0F01F00F00
3C0F01F00F00
3C0F01F01E00
3C0F01E01E00
3C0F01E01C00
3C0F01E03C00
3C0001C03C00
3C0001C07800
3C0001807800
3C0003807800
3FFFFF80F000
3FFFFF00F000
3FFFFF00E000
3FFFFE01E000
00001E01E000
00003E03C000
00003C03C000
00003C03C000
00007C078000
000078078000
0000780F0000
0000F00F0000
0000F00F0000
0001F01E0000
0001E01E0000
0001E01E0000
0003C03C0000
0003C03C0000
0007C0780000
000780780000
000780780000
000F00F00000
000F00F00000
000F01F00000
001E01E00000
001E01E00000
003E03FFFFF0
003C03FFFFF0
003C03FFFFF0
007807FFFFF0
0078070000F0
00F80E0000F0
00F00E0000F0
00F00E0000F0
01E01E0380F0
01E01E0380F0
01E03E0380F0
03C03E0380F0
03C03E0380F0
07C07E0380F0
07807E0380F0
07807E0380F0
0F00FE0380F0
0F00FE0380F0
1F01FE0380F0
1E01FE0380F0
1E01DE0000F0
3C03DE0000F0
3C03DE0000F0
3FFF9FFFFFE0
7FFF9FFFFFE0
7FFF1FFFFFC0
FFFF1FFFFF00
ENDCHAR
STARTCHAR 0026
ENCODING 38
SWIDTH 468 0
DWIDTH 45 0
BBX 46 77 -1 0
BITMAP
01FFFFFFE000
0FFFFFFFFC00
1FFFFFFFFE00
3FFFFFFFFF00
7E0000001F80
7800000007C0
F000000003C0
F000000003C0
F000000003C0
F000000003C0
F000000003C0
F0007F0003C0
F0007F0003C0
F0007F0003C0
F0007F0003C0
F0007F0003C0
F0007F0003C0
F0007F0003C0
F0007F0003C0
F0007F0003C0
F0007FFFFFC0
F0007FFFFFC0
F0007FFFFFC0
F0007FFFFFC4
F0007FFF803C
F0007FFF00FC
F000003E03FC
7800003C1FFC
7C0000787FFC
7F0000FBFF3C
F80001FFF83C
F00003FFE03C
F00007FF003C
F0007FFC003C
F0007FF0003C
F0007F80003C
F0007E00003C
F0007800007C
F000780001FC
F000780003FC
F000780003F0
F000780003C0
F000780003C0
F000780003C0
F000798003C0
F0007F8003C0
F0007F8003C0
F0007F8003C0
F0007F8003C0
F0007F8003C0
F0007F8003C0
F0007F8003C0
F0007F8003C0
F0007F8003C0
F0007F8003C0
F0007F8003C0
F0007F8003C0
F0007F8003C0
F0007F8003C0
F0007F8003C0
F0007F8003C0
F0007F8003C0
F0007F8003C0
F0007F8003C0
F0007F8003C0
F000000003C0
F000000003C0
F000000003C0
F000000003C0
F000000003C0
F000000003C0
7800000007C0
7F0000001F80
3FFFFFFFFF00
1FFFFFFFFE00
07FFFFFFFC00
01FFFFFFE000
ENDCHAR
STARTCHAR 0027
ENCODING 39
SWIDTH 197 0
DWIDTH 19 0
BBX 20 30 0 47
BITMAP
FFFFF0
FFFFF0
FFFFF0
FFFFF0
F000F0
F000F0
F000F0
F000F0
F000F0
F000F0
F000F0
F000F0
F000F0
F000F0
F000F0
F000F0
F000F0
F000F0
F000F0
F000F0
F000F0
F000F0
F000F0
F000F0
F000F0
F000F0
FFFFF0
FFFFF0
FFFFF0
FFFFF0
ENDCHAR
STARTCHAR 0028
ENCODING 40
SWIDTH 281 0
DWIDTH 27 0
BBX 28 77 0 0
BITMAP
01FFFFF0
07FFFFF0
1FFFFFF0
3FFFFFF0
7E0000F0
780000F0
F00000F0
F00000F0
F00000F0
F00000F0
F00000F0
F000FFF0
F000FFF0
F000FFF0
F000FFF0
F000F000
F000F000
F000F000
F000F000
F000F000
F000F000
F000F000
F000F000
F000F000
F000F000
F000F000
F000F000
F000F000
F000F000
F000F000
F000F000
F000F000
F000F000
F000F000
F000F000
F000F000
F000F000
F000F000
F000F000
F000F000
F000F000
F000F000
F000F000
F000F000
F000F000
F000F000
F000F000
F000F000
F000F000
F000F000
F000F000
F000F000
F000F000
F000F000
F000F000
F000F000
F000F000
F000F000
F000F000
F000F000
F000F000
F000F000
F000FFF0
F000FFF0
F000FFF0
F00000F0
F00000F0
F00000F0
F00000F0
F00000F0
F00000F0
F80000F0
7E0000F0
3FFFFFF0
1FFFFFF0
07FFFFF0
01FFFFF0
ENDCHAR
STARTCHAR 0029
ENCODING 41
SWIDTH 281 0
DWIDTH 27 0
BBX 28 77 0 0
BITMAP
FFFFF800
FFFFFE00
FFFFFF80
FFFFFFC0
F00007E0
F00001E0
F00000F0
F00000F0
F00000F0
F00000F0
F00000F0
FFE000F0
FFE000F0
FFE000F0
FFE000F0
01E000F0
01E000F0
01E000F0
01E000F0
01E000F0
01E000F0
01E000F0
01E000F0
01E000F0
01E000F0
01E000F0
01E000F0
01E000F0
01E000F0
01E000F0
01E000F0
01E000F0
01E000F0
01E000F0
01E000F0
01E000F0
01E000F0
01E000F0
01E000F0
01E000F0
01E000F0
01E000F0
01E000F0
01E000F0
01E000F0
01E000F0
01E000F0
01E000F0
01E000F0
01E000F0
01E000F0
01E000F0
01E000F0
01E000F0
01E000F0
01E000F0
01E000F0
01E000F0
01E000F0
01E000F0
01E000F0
01E000F0
FFE000F0
FFE000F0
FFE000F0
F00000F0
F00000F0
F00000F0
F00000F0
F00000F0
F00000F0
F00001F0
F00007E0
FFFFFFC0
FFFFFF80
FFFFFE00
FFFFF800
ENDCHAR
STARTCHAR 002A
ENCODING 42
SWIDTH 354 0
DWIDTH 34 0
BBX 35 39 0 38
BITMAP
001FFF0000
001FFF0000
001FFF0000
011FFF1000
03DC077800
03FC07F800
07FC07FC00
07FC07FC00
0F7C07DE00
0E3C079E00
1E0C060F00
1C04040F00
3C00000780
3800000780
78000003C0
70000003C0
FC00000FE0
7F00001FC0
3F80007F80
0FC000FE00
3F80003F80
FE00001FC0
7C000007C0
70000003C0
3800000380
3800000780
1C00000700
1C04040F00
0E1C070E00
0F3C079E00
07FC07FC00
07FC07FC00
03FC07F800
03DC077800
019C073000
001FFF0000
001FFF0000
001FFF0000
001FFF0000
ENDCHAR
STARTCHAR 002B
ENCODING 43
SWIDTH 291 0
DWIDTH 28 0
BBX 28 39 0 14
BITMAP
03FFF800
03FFF800
03FFF800
03FFF800
03C07800
03C07800
03C07800
03C07800
03C07800
03C07800
03C07800
FFC07FF0
FFC07FF0
FFC07FF0
FFC07FF0
F00000F0
F00000F0
F00000F0
F00000F0
F00000F0
F00000F0
F00000F0
F00000F0
F00000F0
FFC07FF0
FFC07FF0
FFC07FF0
FFC07FF0
03C07800
03C07800
03C07800
03C07800
03C07800
03C07800
03C07800
03FFF800
03FFF800
03FFF800
03FFF800
ENDCHAR
STARTCHAR 002C
ENCODING 44
SWIDTH 197 0
DWIDTH 19 0
BBX 15 27 0 -6
BITMAP
FFFE
FFFE
FFFE
FFFE
F01E
F01E
F01E
F01E
F01E
F01E
F01E
F01E
F01E
F01E
F01E
F01E
F01E
F01E
F01E
F01E
F01E
F01E
F01E
FFFE
FFFE
FFFE
FFFE
ENDCHAR
STARTCHAR 002D
ENCODING 45
SWIDTH 156 0
DWIDTH 15 0
BBX 16 26 0 21
BITMAP
FFFF
FFFF
FFFF
FFFF
F00F
F00F
F00F
F00F
F00F
F00F
F00F
F00F
F00F
F00F
F00F
F00F
F00F
F00F
F00F
F00F
F00F
F00F
FFFF
FFFF
FFFF
FFFF
ENDCHAR
STARTCHAR 002E
ENCODING 46
SWIDTH 239 0
DWIDTH 23 0
BBX 14 16 0 0
BITMAP
FFFC
FFFC
FFFC
FFFC
F03C
F03C
F03C
F03C
F03C
F03C
F03C
F03C
FFFC
FFFC
FFFC
FFFC
ENDCHAR
STARTCHAR 002F
ENCODING 47
SWIDTH 406 0
DWIDTH 39 0
BBX 43 77 -1 0
BITMAP
000001FFFFE0
000003FFFFE0
000003FFFFE0
000003FFFFC0
0000078003C0
0000078003C0
000007800380
000007000780
00000F000780
00000F000700
00000E000F00
00001E000F00
00001E000F00
00001E000E00
00003C001E00
00003C001E00
00003C001C00
000038003C00
000078003C00
000078003800
000070007800
0000F0007800
0000F0007800
0000F0007000
0001E000F000
0001E000F000
0001E000E000
0003C001E000
0003C001E000
0003C001C000
00038003C000
00078003C000
00078003C000
000700078000
000F00078000
000F00078000
000F00070000
001E000F0000
001E000F0000
001E000E0000
001C001E0000
003C001E0000
003C001E0000
0038003C0000
0078003C0000
0078003C0000
007800380000
00F000780000
00F000780000
00F000700000
00E000F00000
01E000F00000
01E000F00000
01C001E00000
03C001E00000
03C001E00000
038003C00000
078003C00000
078003C00000
078003800000
070007800000
0F0007800000
0F0007000000
0E000F000000
1E000F000000
1E000F000000
1C001E000000
3C001E000000
3C001E000000
3C003C000000
38003C000000
78003C000000
780038000000
7FFFF8000000
FFFFF8000000
FFFFF8000000
FFFFF0000000
ENDCHAR
STARTCHAR 0030
ENCODING 48
SWIDTH 416 0
DWIDTH 40 0
BBX 41 77 -1 0
BITMAP
01FFFFFFC000
07FFFFFFF800
1FFFFFFFFC00
3FFFFFFFFE00
7E0000003F00
780000000F80
F00000000780
F00000000780
F00000000780
F00000000780
F00000000780
F0007F000780
F0007F000780
F0007F000780
F0007F000780
F0007F000780
F0007F000780
F0007F000780
F0007F000780
F0007F000780
F0007F000780
F0007F000780
F0007F000780
F0007F000780
F0007F000780
F0007F000780
F0007F000780
F0007F000780
F0007F000780
F0007F000780
F0007F000780
F0007F000780
F0007F000780
F0007F000780
F0007F000780
F0007F000780
F0007F000780
F0007F000780
F0007F000780
F0007F000780
F0007F000780
F0007F000780
F0007F000780
F0007F000780
F0007F000780
F0007F000780
F0007F000780
F0007F000780
F0007F000780
F0007F000780
F0007F000780
F0007F000780
F0007F000780
F0007F000780
F0007F000780
F0007F000780
F0007F000780
F0007F000780
F0007F000780
F0007F000780
F0007F000780
F0007F000780
F0007F000780
F0007F000780
F0007F000780
F00000000780
F00000000780
F00000000780
F00000000780
F00000000780
F00000000780
F80000000F80
7E0000003F00
3FFFFFFFFE00
1FFFFFFFFC00
0FFFFFFFF800
01FFFFFFC000
ENDCHAR
STARTCHAR 0031
ENCODING 49
SWIDTH 270 0
DWIDTH 26 0
BBX 26 77 0 0
BITMAP
FFFFFFC0
FFFFFFC0
FFFFFFC0
FFFFFFC0
F00003C0
F00003C0
F00003C0
F00003C0
F00003C0
F00003C0
F00003C0
F00003C0
FFC003C0
FFC003C0
FFC003C0
03C003C0
03C003C0
03C003C0
03C003C0
03C003C0
03C003C0
03C003C0
03C003C0
03C003C0
03C003C0
03C003C0
03C003C0
03C003C0
03C003C0
03C003C0
03C003C0
03C003C0
03C003C0
03C003C0
03C003C0
03C003C0
03C003C0
03C003C0
03C003C0
03C003C0
03C003C0
03C003C0
03C003C0
03C003C0
03C003C0
03C003C0
03C003C0
03C003C0
03C003C0
03C003C0
03C003C0
03C003C0
03C003C0
03C003C0
03C003C0
03C003C0
03C003C0
03C003C0
03C003C0
03C003C0
03C003C0
03C003C0
03C003C0
03C003C0
03C003C0
03C003C0
03C003C0
03C003C0
03C003C0
03C003C0
03C003C0
03C003C0
03C003C0
03FFFFC0
03FFFFC0
03FFFFC0
03FFFFC0
ENDCHAR
STARTCHAR 0032
ENCODING 50
SWIDTH 416 0
DWIDTH 40 0
BBX 42 76 -1 0
BITMAP
01FFFFFFE000
0FFFFFFFFC00
1FFFFFFFFE00
3FFFFFFFFF00
7E0000003F80
F80000000F80
F000000003C0
F000000003C0
F000000003C0
F000000003C0
F000000003C0
F0003F8003C0
F0003F8003C0
F0003F8003C0
F0003F8003C0
F0003F8003C0
F0003F8003C0
F0003F8003C0
F0003F8003C0
F0003F8003C0
FFFFFF8003C0
FFFFFF8003C0
FFFFFF8003C0
FFFFFF8003C0
1FFFFF8003C0
3F00000003C0
7C00000003C0
F800000003C0
F000000003C0
F000000003C0
F000000007C0
F00000001F80
F0003FFFFF80
F0003FFFFF00
F0003FFFFC00
F0003FFFF000
F0003C000000
F0003C000000
F0003C000000
F0003C000000
F0003C000000
F0003C000000
F0003FFFFFC0
F0003FFFFFC0
F0003FFFFFC0
F0003FFFFFC0
F0003F8003C0
F0003F8003C0
F0003F8003C0
F0003F8003C0
F0003F8003C0
F0003F8003C0
F0003F8003C0
F0003F8003C0
F0003F8003C0
F0003F8003C0
F0003F8003C0
F0003F8003C0
F0003F8003C0
F0003F8003C0
F0003F8003C0
F0003F8003C0
F0003F8003C0
F0003F8003C0
F0003F8003C0
F000000003C0
F000000003C0
F000000003C0
F000000003C0
F000000003C0
F000000003C0
F000000003C0
FFFFFFFFFFC0
FFFFFFFFFFC0
FFFFFFFFFFC0
FFFFFFFFFFC0
ENDCHAR
STARTCHAR 0033
ENCODING 51
SWIDTH 416 0
DWIDTH 40 0
BBX 43 77 -2 0
BITMAP
7FFFFFFFFFE0
7FFFFFFFFFE0
7FFFFFFFFFC0
7FFFFFFFFF80
780000000F80
780000000F00
780000001F00
780000003E00
780000003E00
780000007C00
780000007800
7FFFF000F800
7FFFF000F000
7FFFE001F000
7FFFC001E000
0007C003C000
000F8007C000
001F80078000
001F000F8000
003E000F0000
003E001F0000
007C001E0000
00FC003C0000
00F8003FF000
01F0007FFC00
01F000FFFF00
03E000FFFF80
03E000001FC0
07C0000007C0
0F80000003C0
0F80000003C0
1F00000003C0
1F00000003C0
3FFFFFC003C0
3FFFFFC003C0
7FFFFFC003C0
FFFFFFC003C0
000003C003C0
000003C003C0
000003C003C0
000003C003C0
000003C003C0
000003C003C0
7FFFFFC003C0
7FFFFFC003C0
7FFFFFC003C0
7FFFFFC003C0
78003FC003C0
78003FC003C0
78003FC003C0
78003FC003C0
78003FC003C0
78003FC003C0
78003FC003C0
78003FC003C0
78003FC003C0
78003FC003C0
78003FC003C0
78003FC003C0
78003FC003C0
78003FC003C0
78003FC003C0
78003FC003C0
78003FC003C0
78003FC003C0
78003FC003C0
7800000003C0
7800000003C0
7800000003C0
7800000003C0
7800000003C0
3E00000007C0
3F8000001F80
1FFFFFFFFF00
0FFFFFFFFE00
07FFFFFFFC00
00FFFFFFE000
ENDCHAR
STARTCHAR 0034
ENCODING 52
SWIDTH 479 0
DWIDTH 46 0
BBX 47 77 -1 0
BITMAP
FFFFFFFFFF80
FFFFFFFFFF80
FFFFFFFFFF80
FFFFFFFFFF80
F0007F800780
F0007F800780
F0007F800780
F0007F800780
F0007F800780
F0007F800780
F0007F800780
F0007F800780
F0007F800780
F0007F800780
F0007F800780
F0007F800780
F0007F800780
F0007F800780
F0007F800780
F0007F800780
F0007F800780
F0007F800780
F0007F8007FE
F0007F8007FE
F0007F8007FE
F0007F8007FE
F0000000001E
F0000000001E
F0000000001E
F0000000001E
F0000000001E
F0000000001E
F0000000001E
F000000007FE
FFFFFF8007FE
FFFFFF8007FE
FFFFFF8007FE
000007800780
000007800780
000007800780
000007800780
000007800780
000007800780
000007800780
000007800780
000007800780
000007800780
000007800780
000007800780
000007800780
000007800780
000007800780
000007800780
000007800780
000007800780
000007800780
000007800780
000007800780
000007800780
000007800780
000007800780
000007800780
000007800780
000007800780
000007800780
000007800780
000007800780
000007800780
000007800780
000007800780
000007800780
000007800780
000007800780
000007FFFF80
000007FFFF80
000007FFFF80
000007FFFF80
ENDCHAR
STARTCHAR 0035
ENCODING 53
SWIDTH 416 0
DWIDTH 40 0
BBX 41 77 0 0
BITMAP
FFFFFFFFFF00
FFFFFFFFFF00
FFFFFFFFFF00
FFFFFFFFFF00
F00000000F00
F00000000F00
F00000000F00
F00000000F00
F00000000F00
F00000000F00
F00000000F00
F0007FFFFF00
F0007FFFFF00
F0007FFFFF00
F0007FFFFF00
F00070000000
F00070000000
F00070000000
F00070000000
F00070000000
F00070000000
F00070000000
F0007FFF8000
F0007FFFF000
F0007FFFFC00
F0007FFFFE00
F00000007F00
F00000001F00
F00000000F80
F00000000780
F00000000780
F00000000780
F00000000780
FFFFFF000780
FFFFFF000780
FFFFFF000780
FFFFFF000780
00000F000780
00000F000780
00000F000780
00000F000780
00000F000780
00000F000780
FFFFFF000780
FFFFFF000780
FFFFFF000780
FFFFFF000780
F0007F000780
F0007F000780
F0007F000780
F0007F000780
F0007F000780
F0007F000780
F0007F000780
F0007F000780
F0007F000780
F0007F000780
F0007F000780
F0007F000780
F0007F000780
F0007F000780
F0007F000780
F0007F000780
F0007F000780
F0007F000780
F0007F000780
F00000000780
F00000000780
F00000000780
F00000000780
F00000000780
780000000F00
7E0000003F00
3FFFFFFFFE00
1FFFFFFFFC00
0FFFFFFFF800
01FFFFFFC000
ENDCHAR
STARTCHAR 0036
ENCODING 54
SWIDTH 416 0
DWIDTH 40 0
BBX 41 77 0 0
BITMAP
01FFFFFFC000
0FFFFFFFF800
1FFFFFFFFC00
3FFFFFFFFE00
7E0000003F00
F80000000F80
F00000000780
F00000000780
F00000000780
F00000000780
F00000000780
F0007F000780
F0007F000780
F0007F000780
F0007F000780
F0007F000780
F0007F000780
F0007F000780
F0007F000780
F0007F000780
F0007F000780
F0007F000780
F0007FFFFF80
F0007FFFFF80
F0007FFFFF80
F0007FFFFE00
F00000003F00
F00000000F00
F00000000F80
F00000000780
F00000000780
F00000000780
F00000000780
F0007F000780
F0007F000780
F0007F000780
F0007F000780
F0007F000780
F0007F000780
F0007F000780
F0007F000780
F0007F000780
F0007F000780
F0007F000780
F0007F000780
F0007F000780
F0007F000780
F0007F000780
F0007F000780
F0007F000780
F0007F000780
F0007F000780
F0007F000780
F0007F000780
F0007F000780
F0007F000780
F0007F000780
F0007F000780
F0007F000780
F0007F000780
F0007F000780
F0007F000780
F0007F000780
F0007F000780
F0007F000780
F00000000780
F00000000780
F00000000780
F00000000780
F00000000780
F00000000780
F80000000F80
7E0000003F00
3FFFFFFFFE00
1FFFFFFFFC00
0FFFFFFFF800
01FFFFFFC000
ENDCHAR
STARTCHAR 0037
ENCODING 55
SWIDTH 416 0
DWIDTH 40 0
BBX 41 77 0 0
BITMAP
FFFFFFFFFF80
FFFFFFFFFF80
FFFFFFFFFF80
FFFFFFFFFF80
F00000000780
F00000000780
F00000000780
F00000000780
F00000000780
F00000000780
F00000000780
FFFFFF000780
FFFFFE000780
FFFFF8000780
FFFFF0000780
000FC0000F80
001F80003F80
007F00007E00
00FC0001FC00
01F80003F000
07E0000FE000
0FC0001F8000
3F00007F0000
7E0000FC0000
FC0003F80000
F00007F00000
F0001FC00000
F0003F800000
F000FE000000
F000FC000000
F000F0000000
F000F0000000
F000F0000000
F000F0000000
F000F0000000
F000F0000000
F000F0000000
F000F0000000
F000F0000000
F000F0000000
F000F0000000
F000F0000000
F000F0000000
F000F0000000
F000F0000000
F000F0000000
F000F0000000
F000F0000000
F000F0000000
F000F0000000
F000F0000000
F000F0000000
F000F0000000
F000F0000000
F000F0000000
F000F0000000
F000F0000000
F000F0000000
F000F0000000
F000F0000000
F000F0000000
F000F0000000
F000F0000000
F000F0000000
F000F0000000
F000F0000000
F000F0000000
F000F0000000
F000F0000000
F000F0000000
F000F0000000
F000F0000000
F000F0000000
FFFFF0000000
FFFFF0000000
FFFFF0000000
FFFFF0000000
ENDCHAR
STARTCHAR 0038
ENCODING 56
SWIDTH 416 0
DWIDTH 40 0
BBX 41 77 0 0
BITMAP
01FFFFFFC000
0FFFFFFFF800
1FFFFFFFFC00
3FFFFFFFFE00
7E0000003F00
F80000000F80
F00000000780
F00000000780
F00000000780
F00000000780
F00000000780
F0007F000780
F0007F000780
F0007F000780
F0007F000780
F0007F000780
F0007F000780
F0007F000780
F0007F000780
F0007F000780
F0007F000780
F0007F000780
F0007F000780
F0007C000780
F00078000780
F00070000F00
F80040001E00
7C0000007E00
3F000000FC00
1FC00001FC00
1F8000003E00
3F0000001F00
3C0003000780
780007000780
F8001F000780
F0003F000780
F0007F000780
F0007F000780
F0007F000780
F0007F000780
F0007F000780
F0007F000780
F0007F000780
F0007F000780
F0007F000780
F0007F000780
F0007F000780
F0007F000780
F0007F000780
F0007F000780
F0007F000780
F0007F000780
F0007F000780
F0007F000780
F0007F000780
F0007F000780
F0007F000780
F0007F000780
F0007F000780
F0007F000780
F0007F000780
F0007F000780
F0007F000780
F0007F000780
F0007F000780
F00000000780
F00000000780
F00000000780
F00000000780
F00000000780
F00000000780
F80000000F00
7E0000003F00
3FFFFFFFFE00
1FFFFFFFFC00
0FFFFFFFF800
01FFFFFFC000
ENDCHAR
STARTCHAR 0039
ENCODING 57
SWIDTH 416 0
DWIDTH 40 0
BBX 40 76 0 0
BITMAP
03FFFFFF80
0FFFFFFFF0
3FFFFFFFFC
7C0000007E
700000001E
E00000000F
E000000007
E000000007
E000000007
E000000007
E000FE0007
E000FE0007
E000FE0007
E000FE0007
E000FE0007
E000FE0007
E000FE0007
E000FE0007
E000FE0007
E000FE0007
E000FE0007
E000FE0007
E000FE0007
E000FE0007
E000FE0007
E000000007
E000000007
E000000007
E000000007
E000000007
F000000007
7800000007
7FFFFE0007
3FFFFE0007
0FFFFE0007
00000E0007
00000E0007
00000E0007
00000E0007
00000E0007
00000E0007
00000E0007
00000E0007
FFFFFE0007
FFFFFE0007
FFFFFE0007
E000FE0007
E000FE0007
E000FE0007
E000FE0007
E000FE0007
E000FE0007
E000FE0007
E000FE0007
E000FE0007
E000FE0007
E000FE0007
E000FE0007
E000FE0007
E000FE0007
E000FE0007
E000FE0007
E000FE0007
E000FE0007
E000FE0007
E000FE0007
E000000007
E000000007
E000000007
E000000007
E000000007
700000001E
7C0000007E
3FFFFFFFFC
0FFFFFFFF0
03FFFFFF80
ENDCHAR
STARTCHAR 003A
ENCODING 58
SWIDTH 208 0
DWIDTH 20 0
BBX 15 37 0 18
BITMAP
FFFE
FFFE
FFFE
FFFE
F01E
F01E
F01E
F01E
F01E
F01E
F01E
FFFE
FFFE
FFFE
FFFE
0000
0000
0000
0000
0000
0000
0000
FFFE
FFFE
FFFE
FFFE
F01E
F01E
F01E
F01E
F01E
F01E
F01E
FFFE
FFFE
FFFE
FFFE
ENDCHAR
STARTCHAR 003B
ENCODING 59
SWIDTH 208 0
DWIDTH 20 0
BBX 15 61 0 -6
BITMAP
FFFE
FFFE
FFFE
FFFE
F01E
F01E
F01E
F01E
F01E
F01E
F01E
FFFE
FFFE
FFFE
FFFE
0000
0000
0000
0000
0000
0000
0000
0000
0000
0000
0000
0000
0000
0000
0000
0000
0000
0000
0000
FFFE
FFFE
FFFE
FFFE
F01E
F01E
F01E
F01E
F01E
F01E
F01E
F01E
F01E
F01E
F01E
F01E
F01E
F01E
F01E
F01E
F01E
F01E
F01E
FFFE
FFFE
FFFE
FFFE
ENDCHAR
STARTCHAR 003C
ENCODING 60
SWIDTH 343 0
DWIDTH 33 0
BBX 35 85 0 -4
BITMAP
0000060000
00000F0000
00001F0000
00003F8000
00007FC000
0000FBE000
0001F1F000
0003E0F800
0007C07C00
000F807E00
001F003F00
003E001F00
007C000F80
00F80007C0
01F00007E0
03E0000FC0
07C0001F80
0F80003F00
1F00007E00
3E0000FC00
7C0001F800
F80003F000
F00007E000
E0000FC000
E0001F8000
E0003F0000
E0007E0000
E000FC0000
E000F80000
E000F00000
E000F00000
E000F00000
E000F00000
E000F00000
E000F00000
E000F00000
E000F00000
E000F00000
E000F00000
E000F00000
E000F00000
E000F00000
E000F00000
E000F00000
E000F00000
E000F00000
E000F00000
E000F00000
E000F00000
E000F00000
E000F00000
E000F00000
E000F00000
E000F80000
E000F80000
E0007C0000
E0003E0000
E0001E0000
E0001F0000
F0000F8000
780007C000
7C0003C000
3C0001E000
1E0001F000
0F0000F800
0F80007800
07C0003C00
03C0003E00
01E0001F00
01F0000F00
00F8000780
007C0007C0
003C0007C0
003E001F80
001F003E00
000F807C00
0007C0F800
0007C1F000
0003E7E000
0001FF8000
0000FF0000
0000FE0000
00007C0000
0000380000
0000100000
ENDCHAR
STARTCHAR 003D
ENCODING 61
SWIDTH 281 0
DWIDTH 27 0
BBX 29 28 -1 20
BITMAP
FFFFFFF8
FFFFFFF8
FFFFFFF8
FFFFFFF8
F0000078
F0000078
F0000078
F0000078
F0000078
F0000078
F0000078
F0000078
FFFFFFF8
FFFFFFF8
FFFFFFF8
FFFFFFF8
FFFFFFF8
F0000078
F0000078
F0000078
F0000078
F0000078
F0000078
F0000078
FFFFFFF8
FFFFFFF8
FFFFFFF8
FFFFFFF8
ENDCHAR
STARTCHAR 003E
ENCODING 62
SWIDTH 333 0
DWIDTH 32 0
BBX 35 85 -3 -4
BITMAP
000C000000
001E000000
001F000000
003F800000
007FC00000
00FBE00000
01F1F00000
03E0F80000
07C07C0000
0FC03E0000
1F801F0000
1F000F8000
3E0007C000
7C0003E000
FC0001F000
7E0000F800
3F00007C00
1F80003E00
0FC0001F00
07E0000F80
03F00007C0
01F80003E0
00FC0001E0
007E0000E0
003F0000E0
001F8000E0
000FC000E0
0007E000E0
0003E000E0
0001E000E0
0001E000E0
0001E000E0
0001E000E0
0001E000E0
0001E000E0
0001E000E0
0001E000E0
0001E000E0
0001E000E0
0001E000E0
0001E000E0
0001E000E0
0001E000E0
0001E000E0
0001E000E0
0001E000E0
0001E000E0
0001E000E0
0001E000E0
0001E000E0
0001E000E0
0001E000E0
0001E000E0
0001E000E0
0003E000E0
0007C000E0
000F8000E0
000F0000E0
001F0000E0
003E0001E0
007C0003C0
007C0003C0
00F8000780
01F0000F00
03E0001E00
03E0001E00
07C0003C00
0F80007800
0F0000F000
1F0001F000
3E0001E000
7C0003C000
7E00078000
3F000F8000
0FC00F0000
07E01E0000
03F03C0000
01F87C0000
00FC780000
007FF00000
001FE00000
000FE00000
0007C00000
0003800000
0001000000
ENDCHAR
STARTCHAR 003F
ENCODING 63
SWIDTH 416 0
DWIDTH 40 0
BBX 42 77 0 0
BITMAP
01FFFFFFE000
0FFFFFFFF800
1FFFFFFFFE00
3FFFFFFFFF00
7E0000003F80
F80000000F80
F000000003C0
F000000003C0
F000000003C0
F0007F8003C0
F0007F8003C0
F0007F8003C0
F0007F8003C0
F0007F8003C0
F0007F8003C0
F0007F8003C0
F0007F8003C0
F0007F8003C0
F0007F8003C0
F0007F8003C0
F0007F8003C0
F0007F8003C0
F0007F8003C0
F0007F8003C0
F0007F8003C0
F0007F8003C0
F0007F8003C0
F0007F8003C0
F0007F8003C0
F0007F8003C0
F0007F8003C0
F0007F8003C0
F0007F8003C0
F0007F8003C0
F0007F8003C0
F0007F8003C0
FFFFFF8003C0
FFFFFF8003C0
FFFFFF8003C0
FFFFFF8003C0
7FFFFF8003C0
7C00000003C0
F000000003C0
F000000003C0
F000000007C0
F00000000F80
F00000003F80
F0007FFFFF00
F0007FFFFE00
F0007FFFF800
F0007FFFC000
F00078000000
F00078000000
F00078000000
F00078000000
F00078000000
F00078000000
F00078000000
F00078000000
F00078000000
F00078000000
FFFFF8000000
FFFFF8000000
FFFFF8000000
FFFFF8000000
F00078000000
F00078000000
F00078000000
F00078000000
F00078000000
F00078000000
F00078000000
F00078000000
FFFFF8000000
FFFFF8000000
FFFFF8000000
FFFFF8000000
ENDCHAR
STARTCHAR 0040
ENCODING 64
SWIDTH 604 0
DWIDTH 58 0
BBX 58 62 0 8
BITMAP
01FFFFFFFFFFE000
0FFFFFFFFFFFFC00
1FFFFFFFFFFFFE00
3FFFFFFFFFFFFF00
7F00000000001F80
7C000000000007C0
F8000000000003C0
F0000000000003C0
F0000000000003C0
F0000000000003C0
F0000000000003C0
F0000000000003C0
F000FFFFFF8003C0
F000FFFFFF8003C0
F000FFFFFF8003C0
F000FFFFFF8003C0
F000FF00000003C0
F000FC00000003C0
F000F800000003C0
F000F800000003C0
F000F800000003C0
F000F800000003C0
F000F800000003C0
F000F800000003C0
F000F8003F8003C0
F000F8003F8003C0
F000F8003F8003C0
F000F8003F8003C0
F000F8003F8003C0
F000F8003F8003C0
F000F8003F8003C0
F000F8003F8003C0
F000F8003F8003C0
F000F8003F8003C0
F000F8003F8003C0
F000F8003F8003C0
F000F8003F8003C0
F000F8003F8003C0
F000F8003F8003C0
F000F800000003C0
F000F800000003C0
F000F800000003C0
F000F800000003C0
F000F800000003C0
F000FC00000003C0
F000FF00000003C0
F000FFFFFFFFFFC0
F000FFFFFFFFFFC0
F000FFFFFFFFFFC0
F000FFFFFFFFFFC0
F0000000000003C0
F0000000000003C0
F0000000000003C0
F0000000000003C0
F0000000000003C0
F8000000000003C0
F8000000000003C0
7E000000000003C0
3FFFFFFFFFFFFFC0
1FFFFFFFFFFFFFC0
0FFFFFFFFFFFFFC0
01FFFFFFFFFFFFC0
ENDCHAR
STARTCHAR 0041
ENCODING 65
SWIDTH 416 0
DWIDTH 40 0
BBX 41 77 0 0
BITMAP
01FFFFFFFF80
0FFFFFFFFF80
1FFFFFFFFF80
3FFFFFFFFF80
7E0000000780
F80000000780
F00000000780
F00000000780
F00000000780
F00000000780
F00000000780
F0007F000780
F0007F000780
F0007F000780
F0007F000780
F0007F000780
F0007F000780
F0007F000780
F0007F000780
F0007F000780
F0007F000780
F0007F000780
F0007F000780
F0007F000780
F0007F000780
F0007F000780
F00000000780
F00000000780
F00000000780
F00000000780
F00000000780
F00000000780
F00000000780
F0007F000780
F0007F000780
F0007F000780
F0007F000780
F0007F000780
F0007F000780
F0007F000780
F0007F000780
F0007F000780
F0007F000780
F0007F000780
F0007F000780
F0007F000780
F0007F000780
F0007F000780
F0007F000780
F0007F000780
F0007F000780
F0007F000780
F0007F000780
F0007F000780
F0007F000780
F0007F000780
F0007F000780
F0007F000780
F0007F000780
F0007F000780
F0007F000780
F0007F000780
F0007F000780
F0007F000780
F0007F000780
F0007F000780
F0007F000780
F0007F000780
F0007F000780
F0007F000780
F0007F000780
F0007F000780
F0007F000780
FFFFFFFFFF80
FFFFFFFFFF80
FFFFFFFFFF80
FFFFFFFFFF80
ENDCHAR
STARTCHAR 0042
ENCODING 66
SWIDTH 416 0
DWIDTH 40 0
BBX 41 77 -1 0
BITMAP
FFFFFFFFFF80
FFFFFFFFFF80
FFFFFFFFFF80
FFFFFFFFFF80
F00000000780
F00000000780
F00000000780
F00000000780
F00000000780
F00000000780
F00000000780
F0003F800780
F0003F800780
F0003F800780
F0003F800780
F0003F800780
F0003F800780
F0003F800780
F0003F800780
F0003F800780
F0003F800780
F0003F800780
F0003F800780
F0003F000780
F0003C000780
F00038000F00
F00020001E00
F00000003E00
F0000000FC00
F0000003FC00
F00000007E00
F00000001F00
F00001800F80
F00003800780
F0000F800780
F0001F800780
F0003F800780
F0003F800780
F0003F800780
F0003F800780
F0003F800780
F0003F800780
F0003F800780
F0003F800780
F0003F800780
F0003F800780
F0003F800780
F0003F800780
F0003F800780
F0003F800780
F0003F800780
F0003F800780
F0003F800780
F0003F800780
F0003F800780
F0003F800780
F0003F800780
F0003F800780
F0003F800780
F0003F800780
F0003F800780
F0003F800780
F0003F800780
F0003F800780
F0003F800780
F00000000780
F00000000780
F00000000780
F00000000F80
F00000000F00
F00000003F00
F0000000FE00
F0000007FC00
FFFFFFFFF000
FFFFFFFFE000
FFFFFFFF8000
FFFFFFF80000
ENDCHAR
STARTCHAR 0043
ENCODING 67
SWIDTH 364 0
DWIDTH 35 0
BBX 36 77 0 0
BITMAP
01FFFFFFF0
0FFFFFFFF0
1FFFFFFFF0
3FFFFFFFF0
7E000000F0
78000000F0
F0000000F0
F0000000F0
F0000000F0
F0000000F0
F0000000F0
F000FFFFF0
F000FFFFF0
F000FFFFF0
F000FFFFF0
F000F00000
F000F00000
F000F00000
F000F00000
F000F00000
F000F00000
F000F00000
F000F00000
F000F00000
F000F00000
F000F00000
F000F00000
F000F00000
F000F00000
F000F00000
F000F00000
F000F00000
F000F00000
F000F00000
F000F00000
F000F00000
F000F00000
F000F00000
F000F00000
F000F00000
F000F00000
F000F00000
F000F00000
F000F00000
F000F00000
F000F00000
F000F00000
F000F00000
F000F00000
F000F00000
F000F00000
F000F00000
F000F00000
F000F00000
F000F00000
F000F00000
F000F00000
F000F00000
F000F00000
F000F00000
F000F00000
F000FFFFF0
F000FFFFF0
F000FFFFF0
F000FFFFF0
F0000000F0
F0000000F0
F0000000F0
F0000000F0
F0000000F0
F0000000F0
F0000000F0
F0000000F0
FFFFFFFFF0
FFFFFFFFF0
FFFFFFFFF0
FFFFFFFFF0
ENDCHAR
STARTCHAR 0044
ENCODING 68
SWIDTH 416 0
DWIDTH 40 0
BBX 41 77 -1 0
BITMAP
FFFFFFFFFF80
FFFFFFFFFF80
FFFFFFFFFF80
FFFFFFFFFF80
F00000000780
F00000000780
F00000000780
F00000000780
F00000000780
F00000000780
F00000000780
F0007F800780
F0007F800780
F0007F800780
F0007F800780
F0007F800780
F0007F800780
F0007F800780
F0007F800780
F0007F800780
F0007F800780
F0007F800780
F0007F800780
F0007F800780
F0007F800780
F0007F800780
F0007F800780
F0007F800780
F0007F800780
F0007F800780
F0007F800780
F0007F800780
F0007F800780
F0007F800780
F0007F800780
F0007F800780
F0007F800780
F0007F800780
F0007F800780
F0007F800780
F0007F800780
F0007F800780
F0007F800780
F0007F800780
F0007F800780
F0007F800780
F0007F800780
F0007F800780
F0007F800780
F0007F800780
F0007F800780
F0007F800780
F0007F800780
F0007F800780
F0007F800780
F0007F800780
F0007F800780
F0007F800780
F0007F800780
F0007F800780
F0007F800780
F0007F800780
F0007F800780
F0007F800780
F0007F800780
F00000000780
F00000000780
F00000000780
F00000000F80
F00000000F80
F00000003F00
F0000000FE00
F0000007FC00
FFFFFFFFF800
FFFFFFFFE000
FFFFFFFF8000
FFFFFFF80000
ENDCHAR
STARTCHAR 0045
ENCODING 69
SWIDTH 291 0
DWIDTH 28 0
BBX 28 77 0 0
BITMAP
FFFFFFF0
FFFFFFF0
FFFFFFF0
FFFFFFF0
F00000F0
F00000F0
F00000F0
F00000F0
F00000F0
F00000F0
F00000F0
F000FFF0
F000FFF0
F000FFF0
F000FFF0
F000F000
F000F000
F000F000
F000F000
F000F000
F000F000
F000F000
F000FFF0
F000FFF0
F000FFF0
F000FFF0
F00000F0
F00000F0
F00000F0
F00000F0
F00000F0
F00000F0
F00000F0
F000FFF0
F000FFF0
F000FFF0
F000FFF0
F000F000
F000F000
F000F000
F000F000
F000F000
F000F000
F000F000
F000F000
F000F000
F000F000
F000F000
F000F000
F000F000
F000F000
F000F000
F000F000
F000F000
F000F000
F000F000
F000F000
F000F000
F000F000
F000F000
F000F000
F000FFF0
F000FFF0
F000FFF0
F000FFF0
F00000F0
F00000F0
F00000F0
F00000F0
F00000F0
F00000F0
F00000F0
F00000F0
FFFFFFF0
FFFFFFF0
FFFFFFF0
FFFFFFF0
ENDCHAR
STARTCHAR 0046
ENCODING 70
SWIDTH 291 0
DWIDTH 28 0
BBX 28 77 0 0
BITMAP
FFFFFFF0
FFFFFFF0
FFFFFFF0
FFFFFFF0
F00000F0
F00000F0
F00000F0
F00000F0
F00000F0
F00000F0
F00000F0
F000FFF0
F000FFF0
F000FFF0
F000FFF0
F000F000
F000F000
F000F000
F000F000
F000F000
F000F000
F000F000
F000FFF0
F000FFF0
F000FFF0
F000FFF0
F00000F0
F00000F0
F00000F0
F00000F0
F00000F0
F00000F0
F00000F0
F000FFF0
F000FFF0
F000FFF0
F000FFF0
F000F000
F000F000
F000F000
F000F000
F000F000
F000F000
F000F000
F000F000
F000F000
F000F000
F000F000
F000F000
F000F000
F000F000
F000F000
F000F000
F000F000
F000F000
F000F000
F000F000
F000F000
F000F000
F000F000
F000F000
F000F000
F000F000
F000F000
F000F000
F000F000
F000F000
F000F000
F000F000
F000F000
F000F000
F000F000
F000F000
FFFFF000
FFFFF000
FFFFF000
FFFFF000
ENDCHAR
STARTCHAR 0047
ENCODING 71
SWIDTH 416 0
DWIDTH 40 0
BBX 42 77 -1 0
BITMAP
01FFFFFFFFC0
0FFFFFFFFFC0
1FFFFFFFFFC0
3FFFFFFFFFC0
7F00000003C0
F800000003C0
F000000003C0
F000000003C0
F000000003C0
F000000003C0
F000000003C0
F0003FFFFFC0
F0003FFFFFC0
F0003FFFFFC0
F0003FFFFFC0
F0003C000000
F0003C000000
F0003C000000
F0003C000000
F0003C000000
F0003C000000
F0003C000000
F0003FFFFFC0
F0003FFFFFC0
F0003FFFFFC0
F0003FFFFFC0
F0003C0003C0
F0003C0003C0
F0003C0003C0
F0003C0003C0
F0003C0003C0
F0003C0003C0
F0003C0003C0
F0003F8003C0
F0003F8003C0
F0003F8003C0
F0003F8003C0
F0003F8003C0
F0003F8003C0
F0003F8003C0
F0003F8003C0
F0003F8003C0
F0003F8003C0
F0003F8003C0
F0003F8003C0
F0003F8003C0
F0003F8003C0
F0003F8003C0
F0003F8003C0
F0003F8003C0
F0003F8003C0
F0003F8003C0
F0003F8003C0
F0003F8003C0
F0003F8003C0
F0003F8003C0
F0003F8003C0
F0003F8003C0
F0003F8003C0
F0003F8003C0
F0003F8003C0
F0003F8003C0
F0003F8003C0
F0003F8003C0
F0003F8003C0
F000000003C0
F000000003C0
F000000003C0
F000000003C0
F000000003C0
F000000007C0
F00000000F80
F00000003F80
FFFFFFFFFF00
FFFFFFFFFE00
FFFFFFFFF800
FFFFFFFFE000
ENDCHAR
STARTCHAR 0048
ENCODING 72
SWIDTH 427 0
DWIDTH 41 0
BBX 41 77 0 0
BITMAP
FFFFFFFFFF80
FFFFFFFFFF80
FFFFFFFFFF80
FFFFFFFFFF80
F000FF000780
F000FF000780
F000FF000780
F000FF000780
F000FF000780
F000FF000780
F000FF000780
F000FF000780
F000FF000780
F000FF000780
F000FF000780
F000FF000780
F000FF000780
F000FF000780
F000FF000780
F000FF000780
F000FF000780
F000FF000780
F000FF000780
F000FF000780
F000FF000780
F000FF000780
F00000000780
F00000000780
F00000000780
F00000000780
F00000000780
F00000000780
F00000000780
F000FF000780
F000FF000780
F000FF000780
F000FF000780
F000FF000780
F000FF000780
F000FF000780
F000FF000780
F000FF000780
F000FF000780
F000FF000780
F000FF000780
F000FF000780
F000FF000780
F000FF000780
F000FF000780
F000FF000780
F000FF000780
F000FF000780
F000FF000780
F000FF000780
F000FF000780
F000FF000780
F000FF000780
F000FF000780
F000FF000780
F000FF000780
F000FF000780
F000FF000780
F000FF000780
F000FF000780
F000FF000780
F000FF000780
F000FF000780
F000FF000780
F000FF000780
F000FF000780
F000FF000780
F000FF000780
F000FF000780
FFFFFFFFFF80
FFFFFFFFFF80
FFFFFFFFFF80
FFFFFFFFFF80
ENDCHAR
STARTCHAR 0049
ENCODING 73
SWIDTH 364 0
DWIDTH 35 0
BBX 35 77 0 0
BITMAP
FFFFFFFFE0
FFFFFFFFE0
FFFFFFFFE0
FFFFFFFFE0
F0000001E0
F0000001E0
F0000001E0
F0000001E0
F0000001E0
F0000001E0
F0000001E0
FFE001FFE0
FFE001FFE0
FFE001FFE0
FFE001FFE0
01E001E000
01E001E000
01E001E000
01E001E000
01E001E000
01E001E000
01E001E000
01E001E000
01E001E000
01E001E000
01E001E000
01E001E000
01E001E000
01E001E000
01E001E000
01E001E000
01E001E000
01E001E000
01E001E000
01E001E000
01E001E000
01E001E000
01E001E000
01E001E000
01E001E000
01E001E000
01E001E000
01E001E000
01E001E000
01E001E000
01E001E000
01E001E000
01E001E000
01E001E000
01E001E000
01E001E000
01E001E000
01E001E000
01E001E000
01E001E000
01E001E000
01E001E000
01E001E000
01E001E000
01E001E000
01E001E000
FFE001FFE0
FFE001FFE0
FFE001FFE0
FFE001FFE0
F0000001E0
F0000001E0
F0000001E0
F0000001E0
F0000001E0
F0000001E0
F0000001E0
F0000001E0
FFFFFFFFE0
FFFFFFFFE0
FFFFFFFFE0
FFFFFFFFE0
ENDCHAR
STARTCHAR 004A
ENCODING 74
SWIDTH 416 0
DWIDTH 40 0
BBX 41 77 0 0
BITMAP
000007FFFF80
000007FFFF80
000007FFFF80
000007FFFF80
000007000780
000007000780
000007000780
000007000780
000007000780
000007000780
000007000780
000007000780
000007000780
000007000780
000007000780
000007000780
000007000780
000007000780
000007000780
000007000780
000007000780
000007000780
000007000780
000007000780
000007000780
000007000780
000007000780
000007000780
000007000780
000007000780
FFFFFF000780
FFFFFF000780
FFFFFF000780
FFFFFF000780
F0007F000780
F0007F000780
F0007F000780
F0007F000780
F0007F000780
F0007F000780
F0007F000780
F0007F000780
F0007F000780
F0007F000780
F0007F000780
F0007F000780
F0007F000780
F0007F000780
F0007F000780
F0007F000780
F0007F000780
F0007F000780
F0007F000780
F0007F000780
F0007F000780
F0007F000780
F0007F000780
F0007F000780
F0007F000780
F0007F000780
F0007F000780
F0007F000780
F0007F000780
F0007F000780
F0007F000780
F0007F000780
F00000000780
F00000000780
F00000000780
F00000000780
F00000000780
F00000000F00
F00000003F00
FFFFFFFFFE00
FFFFFFFFFC00
FFFFFFFFF800
FFFFFFFFC000
ENDCHAR
STARTCHAR 004B
ENCODING 75
SWIDTH 416 0
DWIDTH 40 0
BBX 42 77 0 0
BITMAP
FFFFFFFFFFC0
FFFFFFFFFF80
FFFFFFFFFF80
FFFFFFFFFF80
F0007C000F00
F0007C001F00
F0007C001F00
F00078001E00
F00078003E00
F00078003C00
F00078003C00
F00070007C00
F00070007800
F00070007800
F0007000F800
F0006000F000
F0006000F000
F0006001F000
F0006001E000
F0004001E000
F0004003C000
F0004003C000
F0004003C000
F0008007C000
F0000007F000
F000000FF800
F0000000FC00
F00000003E00
F00000001F00
F00000000F00
F00000000F80
F00000000780
F00000000780
F0007F000780
F0007F000780
F0007F000780
F0007F000780
F0007F000780
F0007F000780
F0007F000780
F0007F000780
F0007F000780
F0007F000780
F0007F000780
F0007F000780
F0007F000780
F0007F000780
F0007F000780
F0007F000780
F0007F000780
F0007F000780
F0007F000780
F0007F000780
F0007F000780
F0007F000780
F0007F000780
F0007F000780
F0007F000780
F0007F000780
F0007F000780
F0007F000780
F0007F000780
F0007F000780
F0007F000780
F0007F000780
F0007F000780
F0007F000780
F0007F000780
F0007F000780
F0007F000780
F0007F000780
F0007F000780
F0007F000780
FFFFFFFFFF80
FFFFFFFFFF80
FFFFFFFFFF80
FFFFFFFFFF80
ENDCHAR
STARTCHAR 004C
ENCODING 76
SWIDTH 291 0
DWIDTH 28 0
BBX 29 77 0 0
BITMAP
FFFFF000
FFFFF000
FFFFF000
FFFFF000
F000F000
F000F000
F000F000
F000F000
F000F000
F000F000
F000F000
F000F000
F000F000
F000F000
F000F000
F000F000
F000F000
F000F000
F000F000
F000F000
F000F000
F000F000
F000F000
F000F000
F000F000
F000F000
F000F000
F000F000
F000F000
F000F000
F000F000
F000F000
F000F000
F000F000
F000F000
F000F000
F000F000
F000F000
F000F000
F000F000
F000F000
F000F000
F000F000
F000F000
F000F000
F000F000
F000F000
F000F000
F000F000
F000F000
F000F000
F000F000
F000F000
F000F000
F000F000
F000F000
F000F000
F000F000
F000F000
F000F000
F000F000
F000FFF8
F000FFF8
F000FFF8
F000FFF8
F0000078
F0000078
F0000078
F0000078
F0000078
F0000078
F0000078
F0000078
FFFFFFF8
FFFFFFF8
FFFFFFF8
FFFFFFF8
ENDCHAR
STARTCHAR 004D
ENCODING 77
SWIDTH 562 0
DWIDTH 54 0
BBX 56 77 -1 0
BITMAP
FFFF800003FFFF
FFFFC00003FFFF
FFFFE00007FFFF
FFFFF0000FFFFF
F000F8001F000F
F00078001E000F
F0007C003E000F
F0003E007C000F
F0001F0078000F
F0000F00F0000F
F0000F81F0000F
F00007C3E0000F
F00003E3C0000F
F00001F780000F
F00000FF80000F
F00000FF00000F
F000007E00000F
F000003E00000F
F000001C00000F
F000001800000F
F000000000000F
F000000000000F
F000000000000F
F000000000000F
F000200002000F
F000300006000F
F00030000E000F
F00038000E000F
F0003C001E000F
F0003C003E000F
F0003E007E000F
F0003F00FE000F
F0003F80FE000F
F0003F81FE000F
F0003FC3FE000F
F0003DE7DE000F
F0003DEF9E000F
F0003CFF1E000F
F0003C7F1E000F
F0003C7E1E000F
F0003C3C1E000F
F0003C181E000F
F0003C101E000F
F0003C001E000F
F0003C001E000F
F0003C001E000F
F0003C001E000F
F0003C001E000F
F0003C001E000F
F0003C001E000F
F0003C001E000F
F0003C001E000F
F0003C001E000F
F0003C001E000F
F0003C001E000F
F0003C001E000F
F0003C001E000F
F0003C001E000F
F0003C001E000F
F0003C001E000F
F0003C001E000F
F0003C001E000F
F0003C001E000F
F0003C001E000F
F0003C001E000F
F0003C001E000F
F0003C001E000F
F0003C001E000F
F0003C001E000F
F0003C001E000F
F0003C001E000F
F0003C001E000F
F0003C001E000F
FFFFFC001FFFFF
FFFFFC001FFFFF
FFFFFC001FFFFF
FFFFFC001FFFFF
ENDCHAR
STARTCHAR 004E
ENCODING 78
SWIDTH 416 0
DWIDTH 40 0
BBX 41 77 0 0
BITMAP
FFFFE7FFFF80
FFFFE7FFFF80
FFFFF7FFFF80
FFFFF7FFFF80
F000F7000780
F0007F000780
F0007F000780
F0007F000780
F0003F000780
F0003F000780
F0003F000780
F0001F000780
F0001F000780
F0001F000780
F0000F000780
F0000F000780
F00007000780
F00007000780
F00007000780
F00003000780
F00003000780
F00003000780
F00001000780
F00001000780
F00001000780
F00000000780
F00000000780
F00000000780
F00000000780
F00000000780
F00000000780
F00040000780
F00040000780
F00040000780
F00060000780
F00060000780
F00060000780
F00070000780
F00070000780
F00070000780
F00078000780
F00078000780
F0007C000780
F0007C000780
F0007C000780
F0007E000780
F0007E000780
F0007E000780
F0007F000780
F0007F000780
F0007F000780
F0007F000780
F0007F000780
F0007F000780
F0007F000780
F0007F000780
F0007F000780
F0007F000780
F0007F000780
F0007F000780
F0007F000780
F0007F000780
F0007F000780
F0007F000780
F0007F000780
F0007F000780
F0007F000780
F0007F000780
F0007F000780
F0007F000780
F0007F000780
F0007F000780
F0007F000780
FFFFFFFFFF80
FFFFFFFFFF80
FFFFFFFFFF80
FFFFFFFFFF80
ENDCHAR
STARTCHAR 004F
ENCODING 79
SWIDTH 416 0
DWIDTH 40 0
BBX 41 77 0 0
BITMAP
01FFFFFFFF80
07FFFFFFFF80
1FFFFFFFFF80
3FFFFFFFFF80
7E0000000780
780000000780
F00000000780
F00000000780
F00000000780
F00000000780
F00000000780
F000FE000780
F000FE000780
F000FE000780
F000FE000780
F000FE000780
F000FE000780
F000FE000780
F000FE000780
F000FE000780
F000FE000780
F000FE000780
F000FE000780
F000FE000780
F000FE000780
F000FE000780
F000FE000780
F000FE000780
F000FE000780
F000FE000780
F000FE000780
F000FE000780
F000FE000780
F000FE000780
F000FE000780
F000FE000780
F000FE000780
F000FE000780
F000FE000780
F000FE000780
F000FE000780
F000FE000780
F000FE000780
F000FE000780
F000FE000780
F000FE000780
F000FE000780
F000FE000780
F000FE000780
F000FE000780
F000FE000780
F000FE000780
F000FE000780
F000FE000780
F000FE000780
F000FE000780
F000FE000780
F000FE000780
F000FE000780
F000FE000780
F000FE000780
F000FE000780
F000FE000780
F000FE000780
F000FE000780
F00000000780
F00000000780
F00000000780
F00000000780
F00000000780
F00000000780
F00000000F80
F00000003F00
FFFFFFFFFE00
FFFFFFFFFC00
FFFFFFFFF800
FFFFFFFFC000
ENDCHAR
STARTCHAR 0050
ENCODING 80
SWIDTH 416 0
DWIDTH 40 0
BBX 41 77 0 0
BITMAP
FFFFFFFFFF80
FFFFFFFFFF80
FFFFFFFFFF80
FFFFFFFFFF80
F00000000780
F00000000780
F00000000780
F00000000780
F00000000780
F00000000780
F00000000780
F0007F000780
F0007F000780
F0007F000780
F0007F000780
F0007F000780
F0007F000780
F0007F000780
F0007F000780
F0007F000780
F0007F000780
F0007F000780
F0007F000780
F0007E000780
F00078000F80
F00070000F00
F00040001F00
F00000007E00
F0000000FC00
F0000003F800
F0000007F000
F000001FC000
F000007F8000
F00000FE0000
F00003F80000
F0000FE00000
F0003FC00000
F0007F000000
F0007C000000
F00070000000
F00070000000
F00070000000
F00070000000
F00070000000
F00070000000
F00070000000
F00070000000
F00070000000
F00070000000
F00070000000
F00070000000
F00070000000
F00070000000
F00070000000
F00070000000
F00070000000
F00070000000
F00070000000
F00070000000
F00070000000
F00070000000
F00070000000
F00070000000
F00070000000
F00070000000
F00070000000
F00070000000
F00070000000
F00070000000
F00070000000
F00070000000
F00070000000
F00070000000
FFFFF0000000
FFFFF0000000
FFFFF0000000
FFFFF0000000
ENDCHAR
STARTCHAR 0051
ENCODING 81
SWIDTH 416 0
DWIDTH 40 0
BBX 41 82 0 -6
BITMAP
01FFFFFFFF80
0FFFFFFFFF80
1FFFFFFFFF80
3FFFFFFFFF80
7E0000000780
F80000000780
F00000000780
F00000000780
F00000000780
F00000000780
F00000000780
F0007F000780
F0007F000780
F0007F000780
F0007F000780
F0007F000780
F0007F000780
F0007F000780
F0007F000780
F0007F000780
F0007F000780
F0007F000780
F0007F000780
F0007F000780
F0007F000780
F0007F000780
F0007F000780
F0007F000780
F0007F000780
F0007F000780
F0007F000780
F0007F000780
F0007F000780
F0007F000780
F0007F000780
F0007F000780
F0007F000780
F0007F000780
F0007F000780
F0007F000780
F0007F000780
F0007F000780
F0007F000780
F0007F000780
F0007F000780
F0007F000780
F0007F000780
F0007F000780
F0007F000780
F0007F000780
F0007F000780
F0007F000780
F0007F000780
F0007F000780
F0007F000780
F0007F000780
F0007F000780
F0007F000780
F0007F000780
F0007F000780
F0007F000780
F0007F000780
F0007F000780
F0007F000780
F0007F000780
F00000000780
F00000000780
F00000000780
F00000000780
F00000000780
F00000000780
F00000000F00
F00000003F00
FFF000FFFE00
FFFE00FFFC00
FFFF80FFF000
FFFFF0FFC000
001FFEF00000
0001FFF00000
00003FF00000
000007F00000
000000F00000
ENDCHAR
STARTCHAR 0052
ENCODING 82
SWIDTH 416 0
DWIDTH 40 0
BBX 42 77 -1 0
BITMAP
FFFFFFFFE000
FFFFFFFFF800
FFFFFFFFFE00
FFFFFFFFFF00
F00000003F80
F00000000F80
F000000007C0
F000000003C0
F000000003C0
F000000003C0
F000000003C0
F0003F8003C0
F0003F8003C0
F0003F8003C0
F0003F8003C0
F0003F8003C0
F0003F8003C0
F0003F8003C0
F0003F8003C0
F0003F8003C0
F0003F8003C0
F0003F8003C0
F0003F8003C0
F0003F0003C0
F0003C0003C0
F00038000780
F00020000F00
F00000001F00
F00000007E00
F0000001FE00
F00000003F00
F00000000F80
F000018007C0
F000038003C0
F0000F8003C0
F0001F8003C0
F0003F8003C0
F0003F8003C0
F0003F8003C0
F0003F8003C0
F0003F8003C0
F0003F8003C0
F0003F8003C0
F0003F8003C0
F0003F8003C0
F0003F8003C0
F0003F8003C0
F0003F8003C0
F0003F8003C0
F0003F8003C0
F0003F8003C0
F0003F8003C0
F0003F8003C0
F0003F8003C0
F0003F8003C0
F0003F8003C0
F0003F8003C0
F0003F8003C0
F0003F8003C0
F0003F8003C0
F0003F8003C0
F0003F8003C0
F0003F8003C0
F0003F8003C0
F0003F8003C0
F0003F8003C0
F0003F8003C0
F0003F8003C0
F0003F8003C0
F0003F8003C0
F0003F8003C0
F0003F8003C0
F0003F8003C0
FFFFFFFFFFC0
FFFFFFFFFFC0
FFFFFFFFFFC0
FFFFFFFFFFC0
ENDCHAR
STARTCHAR 0053
ENCODING 83
SWIDTH 416 0
DWIDTH 40 0
BBX 41 77 0 0
BITMAP
01FFFFFFFF80
0FFFFFFFFF80
1FFFFFFFFF80
3FFFFFFFFF80
7E0000000780
F80000000780
F00000000780
F00000000780
F00000000780
F00000000780
F00000000780
F0007F000780
F0007F000780
F0007F000780
F0007F000780
F0007F000780
F0007F000780
F0007F000780
F0007F000780
F0007F000780
F0007F000780
F0007FFFFF80
F0007FFFFF80
F0007FFFFF80
F0007FFFFF80
F0007FFFFE00
F00000001F00
F00000000780
F00000000780
F00000000780
780000000780
7C0000000780
3F0000000780
1FFFFF000780
FFFFFF000780
FFFFFF000780
FFFFFF000780
FFFFFF000780
F0007F000780
F0007F000780
F0007F000780
F0007F000780
F0007F000780
F0007F000780
F0007F000780
F0007F000780
F0007F000780
F0007F000780
F0007F000780
F0007F000780
F0007F000780
F0007F000780
F0007F000780
F0007F000780
F0007F000780
F0007F000780
F0007F000780
F0007F000780
F0007F000780
F0007F000780
F0007F000780
F0007F000780
F0007F000780
F0007F000780
F0007F000780
F00000000780
F00000000780
F00000000780
F00000000780
F00000000780
F00000000780
780000000F00
7E0000003F00
3FFFFFFFFE00
1FFFFFFFFC00
0FFFFFFFF800
01FFFFFFC000
ENDCHAR
STARTCHAR 0054
ENCODING 84
SWIDTH 343 0
DWIDTH 33 0
BBX 36 77 -2 0
BITMAP
FFFFFFFFF0
FFFFFFFFF0
FFFFFFFFF0
FFFFFFFFF0
F0000000F0
F0000000F0
F0000000F0
F0000000F0
F0000000F0
F0000000F0
F0000000F0
FFF000FFF0
FFF000FFF0
FFF000FFF0
FFF000FFF0
00F000F000
00F000F000
00F000F000
00F000F000
00F000F000
00F000F000
00F000F000
00F000F000
00F000F000
00F000F000
00F000F000
00F000F000
00F000F000
00F000F000
00F000F000
00F000F000
00F000F000
00F000F000
00F000F000
00F000F000
00F000F000
00F000F000
00F000F000
00F000F000
00F000F000
00F000F000
00F000F000
00F000F000
00F000F000
00F000F000
00F000F000
00F000F000
00F000F000
00F000F000
00F000F000
00F000F000
00F000F000
00F000F000
00F000F000
00F000F000
00F000F000
00F000F000
00F000F000
00F000F000
00F000F000
00F000F000
00F000F000
00F000F000
00F000F000
00F000F000
00F000F000
00F000F000
00F000F000
00F000F000
00F000F000
00F000F000
00F000F000
00F000F000
00FFFFF000
00FFFFF000
00FFFFF000
00FFFFF000
ENDCHAR
STARTCHAR 0055
ENCODING 85
SWIDTH 416 0
DWIDTH 40 0
BBX 41 77 0 0
BITMAP
FFFFFFFFFF80
FFFFFFFFFF80
FFFFFFFFFF80
FFFFFFFFFF80
F0007F000780
F0007F000780
F0007F000780
F0007F000780
F0007F000780
F0007F000780
F0007F000780
F0007F000780
F0007F000780
F0007F000780
F0007F000780
F0007F000780
F0007F000780
F0007F000780
F0007F000780
F0007F000780
F0007F000780
F0007F000780
F0007F000780
F0007F000780
F0007F000780
F0007F000780
F0007F000780
F0007F000780
F0007F000780
F0007F000780
F0007F000780
F0007F000780
F0007F000780
F0007F000780
F0007F000780
F0007F000780
F0007F000780
F0007F000780
F0007F000780
F0007F000780
F0007F000780
F0007F000780
F0007F000780
F0007F000780
F0007F000780
F0007F000780
F0007F000780
F0007F000780
F0007F000780
F0007F000780
F0007F000780
F0007F000780
F0007F000780
F0007F000780
F0007F000780
F0007F000780
F0007F000780
F0007F000780
F0007F000780
F0007F000780
F0007F000780
F0007F000780
F0007F000780
F0007F000780
F0007F000780
F00000000780
F00000000780
F00000000780
F80000000F80
780000000F00
7E0000001F00
3F0000007E00
1FF00003FC00
0FFFFFFFF800
07FFFFFFF000
01FFFFFFC000
001FFFFC0000
ENDCHAR
STARTCHAR 0056
ENCODING 86
SWIDTH 427 0
DWIDTH 41 0
BBX 43 77 -1 0
BITMAP
FFFFFBFFFFE0
FFFFFBFFFFE0
FFFFFBFFFFE0
FFFFFBFFFFE0
F0007B8001E0
F0007B8001E0
70007F8001E0
70003F8001C0
70003F8001C0
70003F8001C0
78003F8001C0
78003F8003C0
78003F8003C0
78003F8003C0
78003F8003C0
78003F0003C0
38003F0003C0
38003F000380
38003F000380
3C003F000380
3C001F000780
3C001F000780
3C001F000780
3C001F000780
3C001F000780
3C001F000780
1C001F000700
1C001F000700
1C001E000700
1E001E000700
1E001E000F00
1E001E000F00
1E000E000F00
1E000E000F00
1E000E000F00
0E000E000F00
0E000E000E00
0E000E000E00
0F000E000E00
0F000E001E00
0F000E001E00
0F000E001E00
0F000C001E00
0F000C001E00
0F000C001E00
070004001C00
070004001C00
070004001C00
078004001C00
078004003C00
078004003C00
078004003C00
078004003C00
078000003C00
038000003C00
038000003800
038000003800
03C000003800
03C000007800
03C000007800
03C000007800
03C000007800
03C000007800
03C000007800
01C000007000
01C000007000
01E000007000
01E00000F000
01E00000F000
01E00000F000
01E00000F000
01E00000F000
01E00000F000
00FFFFFFF000
00FFFFFFE000
00FFFFFFE000
00FFFFFFE000
ENDCHAR
STARTCHAR 0057
ENCODING 87
SWIDTH 625 0
DWIDTH 60 0
BBX 60 77 0 0
BITMAP
FFFFFFFFFFFFFFF0
FFFFFFFFFFFFFFF0
FFFFFFFFFFFFFFF0
FFFFFFFFFFFFFFF0
F000FF0007F000F0
F000FF0007F000F0
F000FF0007F000F0
F000FF0007F000F0
F000FF0007F000F0
F000FF0007F000F0
F000FF0007F000F0
F000FF0007F000F0
F000FF0007F000F0
F000FF0007F000F0
F000FF0007F000F0
F000FF0007F000F0
F000FF0007F000F0
F000FF0007F000F0
F000FF0007F000F0
F000FF0007F000F0
F000FF0007F000F0
F000FF0007F000F0
F000FF0007F000F0
F000FF0007F000F0
F000FF0007F000F0
F000FF0007F000F0
F000FF0007F000F0
F000FF0007F000F0
F000FF0007F000F0
F000FF0007F000F0
F000FF0007F000F0
F000FF0007F000F0
F000FF0007F000F0
F000FF0007F000F0
F000FF0007F000F0
F000FF0007F000F0
F000FF0007F000F0
F000FF0007F000F0
F000FF0007F000F0
F000FF0007F000F0
F000FF0007F000F0
F000FF0007F000F0
F000FF0007F000F0
F000FF0007F000F0
F000FF0007F000F0
F000FF0007F000F0
F000FF0007F000F0
F000FF0007F000F0
F000FF0007F000F0
F000FF0007F000F0
F000FF0007F000F0
F000FF0007F000F0
F000FF0007F000F0
F000FF0007F000F0
F000FF0007F000F0
F000FF0007F000F0
F000FF0007F000F0
F000FF0007F000F0
F000FF0007F000F0
F000FF0007F000F0
F000FF0007F000F0
F000FF0007F000F0
F000FF0007F000F0
F000FF0007F000F0
F000FF0007F000F0
F0000000000000F0
F0000000000000F0
F0000000000000F0
F8000000000000F0
7C000000000000F0
7E000000000000F0
3F000000000000F0
1FE00000000000F0
0FFFFFFFFFFFFFF0
03FFFFFFFFFFFFF0
00FFFFFFFFFFFFF0
001FFFFFFFFFFFF0
ENDCHAR
STARTCHAR 0058
ENCODING 88
SWIDTH 416 0
DWIDTH 40 0
BBX 42 77 -1 0
BITMAP
FFFFFFFFFFC0
FFFFFFFFFFC0
FFFFFFFFFFC0
FFFFFFFFFFC0
F0003F8003C0
F0003F8003C0
F0003F8003C0
F0003F8003C0
F0003F8003C0
F0003F8003C0
F0003F8003C0
F0003F8003C0
F0003F8003C0
F0003F8003C0
F0003F8003C0
F0003F8003C0
F0003F8003C0
F0003F8003C0
F0003F8003C0
F0003F8003C0
F0003F8003C0
F0003F8003C0
F0003F8003C0
F0003F0003C0
F0003C0003C0
F00038000780
F00020000F00
780000001F00
3E0000007E00
1FE00001FE00
1F8000003F00
1F0000000F80
3E00008007C0
7C00038003C0
7800078003C0
F0001F8003C0
F0003F8003C0
F0003F8003C0
F0003F8003C0
F0003F8003C0
F0003F8003C0
F0003F8003C0
F0003F8003C0
F0003F8003C0
F0003F8003C0
F0003F8003C0
F0003F8003C0
F0003F8003C0
F0003F8003C0
F0003F8003C0
F0003F8003C0
F0003F8003C0
F0003F8003C0
F0003F8003C0
F0003F8003C0
F0003F8003C0
F0003F8003C0
F0003F8003C0
F0003F8003C0
F0003F8003C0
F0003F8003C0
F0003F8003C0
F0003F8003C0
F0003F8003C0
F0003F8003C0
F0003F8003C0
F0003F8003C0
F0003F8003C0
F0003F8003C0
F0003F8003C0
F0003F8003C0
F0003F8003C0
F0003F8003C0
FFFFFFFFFFC0
FFFFFFFFFFC0
FFFFFFFFFFC0
FFFFFFFFFFC0
ENDCHAR
STARTCHAR 0059
ENCODING 89
SWIDTH 416 0
DWIDTH 40 0
BBX 41 77 0 0
BITMAP
FFFFFFFFFF80
FFFFFFFFFF80
FFFFFFFFFF80
FFFFFFFFFF80
F0007F000780
F0007F000780
F0007F000780
F0007F000780
F0007F000780
F0007F000780
F0007F000780
F0007F000780
F0007F000780
F0007F000780
F0007F000780
F0007F000780
F0007F000780
F0007F000780
F0007F000780
F0007F000780
F0007F000780
F0007F000780
F0007F000780
F0007F000780
F0007F000780
F0007F000780
F00000000780
F00000000780
F00000000780
F00000000780
F00000000780
780000000780
7E0000000780
3FFFFF000780
FFFFFF000780
FFFFFF000780
FFFFFF000780
FFFFFF000780
F0007F000780
F0007F000780
F0007F000780
F0007F000780
F0007F000780
F0007F000780
F0007F000780
F0007F000780
F0007F000780
F0007F000780
F0007F000780
F0007F000780
F0007F000780
F0007F000780
F0007F000780
F0007F000780
F0007F000780
F0007F000780
F0007F000780
F0007F000780
F0007F000780
F0007F000780
F0007F000780
F0007F000780
F0007F000780
F0007F000780
F0007F000780
F00000000780
F00000000780
F00000000780
F00000000780
F00000000780
F00000000780
780000000780
7E0000000780
3FFFFFFFFF80
1FFFFFFFFF80
0FFFFFFFFF80
01FFFFFFFF80
ENDCHAR
STARTCHAR 005A
ENCODING 90
SWIDTH 416 0
DWIDTH 40 0
BBX 41 77 0 0
BITMAP
FFFFFFFFFF80
FFFFFFFFFF80
FFFFFFFFFF80
FFFFFFFFFF80
F00000000780
F00000000780
F00000000780
F00000000780
F00000000780
F00000000780
F00000000780
FFFFFF000780
FFFFFE000780
FFFFF8000780
FFFFF0000780
000FC0000F80
001F80003F00
003F00007E00
00FC0001F800
01F80003F000
07E0000FC000
0FC0001F8000
3F80007E0000
7E0000FC0000
FC0003F80000
F00007E00000
F0001FC00000
F0003F000000
F000FE000000
F000F8000000
F000F0000000
F000F0000000
F000F0000000
F000F0000000
F000F0000000
F000F0000000
F000F0000000
F000F0000000
F000F0000000
F000F0000000
F000F0000000
F000F0000000
F000F0000000
F000F0000000
F000F0000000
F000F0000000
F000F0000000
F000F0000000
F000F0000000
F000F0000000
F000F0000000
F000F0000000
F000F0000000
F000F0000000
F000F0000000
F000F0000000
F000F0000000
F000F0000000
F000F0000000
F000F0000000
F000F0000000
F000FFFFFF80
F000FFFFFF80
F000FFFFFF80
F000FFFFFF80
F00000000780
F00000000780
F00000000780
F00000000780
F00000000780
F00000000780
F00000000780
F00000000780
FFFFFFFFFF80
FFFFFFFFFF80
FFFFFFFFFF80
FFFFFFFFFF80
ENDCHAR
STARTCHAR 005B
ENCODING 91
SWIDTH 281 0
DWIDTH 27 0
BBX 29 77 -1 0
BITMAP
FFFFFFF8
FFFFFFF8
FFFFFFF8
FFFFFFF8
F0000078
F0000078
F0000078
F0000078
F0000078
F0000078
F0000078
F0007FF8
F0007FF8
F0007FF8
F0007FF8
F0007800
F0007800
F0007800
F0007800
F0007800
F0007800
F0007800
F0007800
F0007800
F0007800
F0007800
F0007800
F0007800
F0007800
F0007800
F0007800
F0007800
F0007800
F0007800
F0007800
F0007800
F0007800
F0007800
F0007800
F0007800
F0007800
F0007800
F0007800
F0007800
F0007800
F0007800
F0007800
F0007800
F0007800
F0007800
F0007800
F0007800
F0007800
F0007800
F0007800
F0007800
F0007800
F0007800
F0007800
F0007800
F0007800
F0007FF8
F0007FF8
F0007FF8
F0007FF8
F0000078
F0000078
F0000078
F0000078
F0000078
F0000078
F0000078
F0000078
FFFFFFF8
FFFFFFF8
FFFFFFF8
FFFFFFF8
ENDCHAR
STARTCHAR 005C
ENCODING 92
SWIDTH 406 0
DWIDTH 39 0
BBX 43 77 -1 0
BITMAP
FFFFF0000000
FFFFF0000000
FFFFF8000000
FFFFF8000000
700078000000
78003C000000
78003C000000
38003C000000
3C001E000000
3C001E000000
1C001E000000
1E000F000000
1E000F000000
1E000F000000
0F000F000000
0F0007800000
0F0007800000
070007800000
078003C00000
078003C00000
038003C00000
03C001E00000
03C001E00000
01C001E00000
01E000E00000
01E000F00000
01E000F00000
00F000F00000
00F000780000
00F000780000
007000780000
0078003C0000
0078003C0000
0038003C0000
003C001C0000
003C001E0000
003C001E0000
001E000E0000
001E000F0000
001E000F0000
000F000F0000
000F00078000
000F00078000
000700078000
00078003C000
00078003C000
00038003C000
0003C001C000
0003C001E000
0003C001E000
0001E000E000
0001E000F000
0001E000F000
0000F000F000
0000F0007800
0000F0007800
000070007800
000078003800
000078003C00
000078003C00
00003C001C00
00003C001E00
00003C001E00
00001E000E00
00001E000F00
00001E000F00
00000F000F00
00000F000700
00000F000780
000007000780
000007800380
0000078003C0
0000078003C0
000003FFFFC0
000003FFFFE0
000003FFFFE0
000001FFFFE0
ENDCHAR
STARTCHAR 005D
ENCODING 93
SWIDTH 281 0
DWIDTH 27 0
BBX 29 77 -1 0
BITMAP
FFFFFFF8
FFFFFFF8
FFFFFFF8
FFFFFFF8
F0000078
F0000078
F0000078
F0000078
F0000078
F0000078
F0000078
F0000078
FFF00078
FFF00078
FFF00078
FFF00078
00F00078
00F00078
00F00078
00F00078
00F00078
00F00078
00F00078
00F00078
00F00078
00F00078
00F00078
00F00078
00F00078
00F00078
00F00078
00F00078
00F00078
00F00078
00F00078
00F00078
00F00078
00F00078
00F00078
00F00078
00F00078
00F00078
00F00078
00F00078
00F00078
00F00078
00F00078
00F00078
00F00078
00F00078
00F00078
00F00078
00F00078
00F00078
00F00078
00F00078
00F00078
00F00078
00F00078
00F00078
00F00078
FFF00078
FFF00078
FFF00078
FFF00078
F0000078
F0000078
F0000078
F0000078
F0000078
F0000078
F0000078
F0000078
FFFFFFF8
FFFFFFF8
FFFFFFF8
FFFFFFF8
ENDCHAR
STARTCHAR 005F
ENCODING 95
SWIDTH 406 0
DWIDTH 39 0
BBX 39 6 1 -6
BITMAP
FFFFFFFFFE
FFFFFFFFFE
FFFFFFFFFE
FFFFFFFFFE
FFFFFFFFFE
FFFFFFFFFE
ENDCHAR
STARTCHAR 0061
ENCODING 97
SWIDTH 416 0
DWIDTH 40 0
BBX 42 77 -1 0
BITMAP
01FFFFFFE000
0FFFFFFFF800
1FFFFFFFFE00
3FFFFFFFFF00
7F0000003F80
FC0000000F80
F000000007C0
F000000003C0
F000000003C0
F000000003C0
F000000003C0
F0007F0003C0
F0007F0003C0
F0007F0003C0
F0007F0003C0
F0007F0003C0
F0007F0003C0
F0007F0003C0
F0007F0003C0
F0007F0003C0
F0007F0003C0
F0007F0003C0
F0007F0003C0
F0007F0003C0
F0007F0003C0
F0007F0003C0
F0007F0003C0
F0007F0003C0
F0007F0003C0
F0007F0003C0
F0007F0003C0
F0007F0003C0
F0007F0003C0
F0007F0003C0
F0007F0003C0
F0007F0003C0
F0007F0003C0
F0007F0003C0
F0007F0003C0
F0007F0003C0
F0007F0003C0
F0007F0003C0
F0007F0003C0
F0007F0003C0
F0007F0003C0
F0007F0003C0
F0007F0003C0
F000000003C0
F000000003C0
F000000003C0
F000000003C0
F000000003C0
F000000003C0
F000000003C0
F0007F0003C0
F0007F0003C0
F0007F0003C0
F0007F0003C0
F0007F0003C0
F0007F0003C0
F0007F0003C0
F0007F0003C0
F0007F0003C0
F0007F0003C0
F0007F0003C0
F0007F0003C0
F0007F0003C0
F0007F0003C0
F0007F0003C0
F0007F0003C0
F0007F0003C0
F0007F0003C0
F0007F0003C0
FFFFFFFFFFC0
FFFFFFFFFFC0
FFFFFFFFFFC0
FFFFFFFFFFC0
ENDCHAR
STARTCHAR 0062
ENCODING 98
SWIDTH 406 0
DWIDTH 39 0
BBX 41 77 -1 0
BITMAP
FFFFFFFC0000
FFFFFFFF8000
FFFFFFFFE000
FFFFFFFFF800
F0000003FC00
F0000000FE00
F00000003E00
F00000001F00
F00000000F00
F00000000F80
F00000000780
F0007F000780
F0007F000780
F0007F000780
F0007F000780
F0007F000780
F0007F000780
F0007F000780
F0007F000780
F0007F000780
F0007F000780
F0007F000780
F0007F000780
F0007F000780
F0007F000780
F0007F000780
F0007F000780
F0007F000780
F0007F000780
F0007F000780
F0007F000780
F0007F000780
F0007F000780
F0007F000780
F0007F000780
F0007F000780
F0007F000780
F0007F000780
F0007F000780
F0007F000780
F0007F000780
F0007F000780
F0007F000780
F0007F000780
F0007E000780
F0007C000780
F00078000F00
F00060001F00
F00040003E00
F00000007C00
F0000001FC00
F0000000FE00
F00000001F00
F00001000F00
F00003000780
F0000F000780
F0001F000780
F0007F000780
F0007F000780
F0007F000780
F0007F000780
F0007F000780
F0007F000780
F0007F000780
F0007F000780
F00000000780
F00000000780
F00000000780
F00000000780
F00000000780
F00000000780
F00000000780
F00000000780
FFFFFFFFFF80
FFFFFFFFFF80
FFFFFFFFFF80
FFFFFFFFFF80
ENDCHAR
STARTCHAR 0063
ENCODING 99
SWIDTH 416 0
DWIDTH 40 0
BBX 41 77 -1 0
BITMAP
01FFFFFFFF80
0FFFFFFFFF80
1FFFFFFFFF80
3FFFFFFFFF80
7F0000000780
780000000780
F00000000780
F00000000780
F00000000780
F00000000780
F00000000780
F0007F000780
F0007F000780
F0007F000780
F0007F000780
F0007F000780
F0007F000780
F0007F000780
F0007F000780
F0007F000780
F0007F000780
F0007F000780
F0007F000780
F0007F000780
F0007F000780
F0007F000780
F0007F000780
F0007F000780
F0007F000780
F0007F000780
F0007F000780
F0007F000780
F0007F000780
F0007F000780
F0007F000780
F0007F000780
F0007F000780
F0007F000780
F0007FFFFF80
F0007FFFFF80
F0007FFFFF80
F0007FFFFF80
F00078000000
F00078000000
F00078000000
F00078000000
F00078000000
F00078000000
F00078000000
F00078000000
F00078000000
F00078000000
F00078000000
F00078000000
F00078000000
F00078000000
F00078000000
F00078000000
F00078000000
F00078000000
F00078000000
F0007FFFFF80
F0007FFFFF80
F0007FFFFF80
F0007FFFFF80
F00000000780
F00000000780
F00000000780
F00000000780
F00000000780
F00000000780
F00000000780
F00000000780
FFFFFFFFFF80
FFFFFFFFFF80
FFFFFFFFFF80
FFFFFFFFFF80
ENDCHAR
STARTCHAR 0064
ENCODING 100
SWIDTH 416 0
DWIDTH 40 0
BBX 41 77 -1 0
BITMAP
FFFFFFFFC000
FFFFFFFFF000
FFFFFFFFFC00
FFFFFFFFFE00
F00000007F00
F00000000F00
F00000000780
F00000000780
F00000000780
F00000000780
F00000000780
F0007F800780
F0007F800780
F0007F800780
F0007F800780
F0007F800780
F0007F800780
F0007F800780
F0007F800780
F0007F800780
F0007F800780
F0007F800780
F0007F800780
F0007F800780
F0007F800780
F0007F800780
F0007F800780
F0007F800780
F0007F800780
F0007F800780
F0007F800780
F0007F800780
F0007F800780
F0007F800780
F0007F800780
F0007F800780
F0007F800780
F0007F800780
F0007F800780
F0007F800780
F0007F800780
F0007F800780
F0007F800780
F0007F800780
F0007F800780
F0007F800780
F0007F800780
F0007F800780
F0007F800780
F0007F800780
F0007F800780
F0007F800780
F0007F800780
F0007F800780
F0007F800780
F0007F800780
F0007F800780
F0007F800780
F0007F800780
F0007F800780
F0007F800780
F0007F800780
F0007F800780
F0007F800780
F0007F800780
F00000000780
F00000000780
F00000000780
F00000000780
F00000000780
F00000000780
F00000000780
F00000000780
FFFFFFFFFF80
FFFFFFFFFF80
FFFFFFFFFF80
FFFFFFFFFF80
ENDCHAR
STARTCHAR 0065
ENCODING 101
SWIDTH 281 0
DWIDTH 27 0
BBX 29 77 -1 0
BITMAP
FFFFFFF8
FFFFFFF8
FFFFFFF8
FFFFFFF8
F0000078
F0000078
F0000078
F0000078
F0000078
F0000078
F0000078
F0007FF8
F0007FF8
F0007FF8
F0007FF8
F0007800
F0007800
F0007800
F0007800
F0007800
F0007800
F0007800
F0007800
F0007800
F0007800
F0007800
F0007800
F0007800
F0007800
F0007800
F0007800
F0007800
F0007800
F0007800
F0007800
F0007800
F0007800
F0007800
F0007800
F0007800
F0007800
F0007800
F0007800
F0007FF8
F0007FF8
F0007FF8
F0007FF8
F0000078
F0000078
F0000078
F0000078
F0000078
F0000078
F0000078
F0007FF8
F0007FF8
F0007FF8
F0007FF8
F0007800
F0007800
F0007800
F0007FF8
F0007FF8
F0007FF8
F0007FF8
F0000078
F0000078
F0000078
F0000078
F0000078
F0000078
F0000078
F0000078
FFFFFFF8
FFFFFFF8
FFFFFFF8
FFFFFFF8
ENDCHAR
STARTCHAR 0066
ENCODING 102
SWIDTH 291 0
DWIDTH 28 0
BBX 29 77 -1 0
BITMAP
FFFFFFF8
FFFFFFF8
FFFFFFF8
FFFFFFF8
F0000078
F0000078
F0000078
F0000078
F0000078
F0000078
F0000078
F0007FF8
F0007FF8
F0007FF8
F0007FF8
F0007800
F0007800
F0007800
F0007800
F0007800
F0007800
F0007800
F0007800
F0007800
F0007800
F0007800
F0007800
F0007800
F0007800
F0007800
F0007800
F0007800
F0007800
F0007800
F0007800
F0007800
F0007800
F0007800
F0007800
F0007800
F0007800
F0007800
F0007800
F0007FF8
F0007FF8
F0007FF8
F0007FF8
F0000078
F0000078
F0000078
F0000078
F0000078
F0000078
F0000078
F0007FF8
F0007FF8
F0007FF8
F0007FF8
F0007800
F0007800
F0007800
F0007800
F0007800
F0007800
F0007800
F0007800
F0007800
F0007800
F0007800
F0007800
F0007800
F0007800
F0007800
FFFFF800
FFFFF800
FFFFF800
FFFFF800
ENDCHAR
STARTCHAR 0067
ENCODING 103
SWIDTH 416 0
DWIDTH 40 0
BBX 41 77 0 0
BITMAP
01FFFFFFFF80
0FFFFFFFFF80
1FFFFFFFFF80
3FFFFFFFFF80
7F0000000780
7C0000000780
F00000000780
F00000000780
F00000000780
F00000000780
F00000000780
F0007F000780
F0007F000780
F0007F000780
F0007F000780
F0007F000780
F0007F000780
F0007F000780
F0007F000780
F0007F000780
F0007F000780
F0007F000780
F0007F000780
F0007F000780
F0007F000780
F0007F000780
F0007F000780
F0007F000780
F0007F000780
F0007F000780
F0007F000780
F0007F000780
F0007F000780
F0007F000780
F0007F000780
F0007F000780
F0007F000780
F0007F000780
F0007FFFFF80
F0007FFFFF80
F0007FFFFF80
F0007FFFFF80
F00078000000
F0007FFFFF80
F0007FFFFF80
F0007FFFFF80
F00070003F80
F00070000780
F00070000780
F00070000780
F00070000780
F00070000780
F00070000780
F00070000780
F0007F000780
F0007F000780
F0007F000780
F0007F000780
F0007F000780
F0007F000780
F0007F000780
F0007F000780
F0007F000780
F0007F000780
F0007F000780
F00000000780
F00000000780
F00000000780
F00000000780
F00000000780
F00000000780
F00000000780
F00000000780
FFFFFFFFFF80
FFFFFFFFFF80
FFFFFFFFFF80
FFFFFFFFFF80
ENDCHAR
STARTCHAR 0068
ENCODING 104
SWIDTH 416 0
DWIDTH 40 0
BBX 41 77 0 0
BITMAP
FFFFFFFFFF80
FFFFFFFFFF80
FFFFFFFFFF80
FFFFFFFFFF80
F000FF000780
F000FF000780
F000FF000780
F000FF000780
F000FF000780
F000FF000780
F000FF000780
F000FF000780
F000FF000780
F000FF000780
F000FF000780
F000FF000780
F000FF000780
F000FF000780
F000FF000780
F000FF000780
F000FF000780
F000FF000780
F000FF000780
F000FF000780
F000FF000780
F000FF000780
F000FF000780
F000FF000780
F000FF000780
F000FF000780
F000FF000780
F000FF000780
F000FF000780
F000FF000780
F000FF000780
F000FF000780
F000FF000780
F000FF000780
F000FF000780
F000FF000780
F000FF000780
F000FF000780
F000FF000780
F000FF000780
F000FF000780
F000FF000780
F000FF000780
F00000000780
F00000000780
F00000000780
F00000000780
F00000000780
F00000000780
F00000000780
F00000000780
F000FF000780
F000FF000780
F000FF000780
F000FF000780
F000FF000780
F000FF000780
F000FF000780
F000FF000780
F000FF000780
F000FF000780
F000FF000780
F000FF000780
F000FF000780
F000FF000780
F000FF000780
F000FF000780
F000FF000780
F000FF000780
FFFFFFFFFF80
FFFFFFFFFF80
FFFFFFFFFF80
FFFFFFFFFF80
ENDCHAR
STARTCHAR 0069
ENCODING 105
SWIDTH 187 0
DWIDTH 18 0
BBX 20 77 0 0
BITMAP
FFFFF0
FFFFF0
FFFFF0
FFFFF0
F000F0
F000F0
F000F0
F000F0
F000F0
F000F0
F000F0
F000F0
F000F0
F000F0
F000F0
F000F0
F000F0
F000F0
F000F0
F000F0
F000F0
F000F0
F000F0
F000F0
F000F0
F000F0
F000F0
F000F0
F000F0
F000F0
F000F0
F000F0
F000F0
F000F0
F000F0
F000F0
F000F0
F000F0
F000F0
F000F0
F000F0
F000F0
F000F0
F000F0
F000F0
F000F0
F000F0
F000F0
F000F0
F000F0
F000F0
F000F0
F000F0
F000F0
F000F0
F000F0
F000F0
F000F0
F000F0
F000F0
F000F0
F000F0
F000F0
F000F0
F000F0
F000F0
F000F0
F000F0
F000F0
F000F0
F000F0
F000F0
F000F0
FFFFF0
FFFFF0
FFFFF0
FFFFF0
ENDCHAR
STARTCHAR 006A
ENCODING 106
SWIDTH 406 0
DWIDTH 39 0
BBX 41 77 0 0
BITMAP
000007FFFF80
000007FFFF80
000007FFFF80
000007FFFF80
000007800780
000007800780
000007800780
000007800780
000007800780
000007800780
000007800780
000007800780
000007800780
000007800780
000007800780
000007800780
000007800780
000007800780
000007800780
000007800780
000007800780
000007800780
000007800780
000007800780
000007800780
000007800780
000007800780
000007800780
000007800780
000007800780
000007800780
000007800780
000007800780
000007800780
000007800780
000007800780
000007800780
000007800780
000007800780
000007800780
000007800780
000007800780
000007800780
FFFFFF800780
FFFFFF800780
FFFFFF800780
FFFFFF800780
F0007F800780
F0007F800780
F0007F800780
F0007F800780
F0007F800780
F0007F800780
F0007F800780
F0007F800780
F0007F800780
F0007F800780
F0007F800780
F0007F800780
F0007F800780
F0007F800780
F0007F800780
F0007F800780
F0007F800780
F0007F800780
F00000000780
F00000000780
F00000000780
F00000000780
F00000000780
F00000000780
780000000780
7E0000000780
3FFFFFFFFF80
1FFFFFFFFF80
07FFFFFFFF80
01FFFFFFFF80
ENDCHAR
STARTCHAR 006B
ENCODING 107
SWIDTH 416 0
DWIDTH 40 0
BBX 41 77 -1 0
BITMAP
FFFFFFFFFF80
FFFFFFFFFF80
FFFFFFFFFF80
FFFFFFFFFF80
F0007F800780
F0007F800780
F0007F800780
F0007F800780
F0007F800780
F0007F800780
F0007F800780
F0007F800780
F0007F800780
F0007F800780
F0007F800780
F0007F800780
F0007F800780
F0007F800780
F0007F800780
F0007F800780
F0007F800780
F0007F800780
F0007F800780
F0007F800780
F0007F800780
F0007F800780
F0007F800780
F0007F800780
F0007F800780
F0007F800780
F0007F800780
F0007F800780
F0007F800780
F0007F800780
F0007F800780
F0007F800780
F0007F800780
F0007F800780
F0007F800780
F0007F800780
F0007F800780
F0007F800780
F0007F800780
F0007F800780
F0007F000780
F0007E000780
F00078000F00
F00060001F00
F00040003E00
F00000007C00
F0000001F800
F0000000FE00
F00000003F00
F00000800F00
F00003800780
F00007800780
F0001F800780
F0007F800780
F0007F800780
F0007F800780
F0007F800780
F0007F800780
F0007F800780
F0007F800780
F0007F800780
F0007F800780
F0007F800780
F0007F800780
F0007F800780
F0007F800780
F0007F800780
F0007F800780
F0007F800780
FFFFFFFFFF80
FFFFFFFFFF80
FFFFFFFFFF80
FFFFFFFFFF80
ENDCHAR
STARTCHAR 006C
ENCODING 108
SWIDTH 281 0
DWIDTH 27 0
BBX 29 77 -1 0
BITMAP
FFFFF800
FFFFF800
FFFFF800
FFFFF800
F0007800
F0007800
F0007800
F0007800
F0007800
F0007800
F0007800
F0007800
F0007800
F0007800
F0007800
F0007800
F0007800
F0007800
F0007800
F0007800
F0007800
F0007800
F0007800
F0007800
F0007800
F0007800
F0007800
F0007800
F0007800
F0007800
F0007800
F0007800
F0007800
F0007800
F0007800
F0007800
F0007800
F0007800
F0007800
F0007800
F0007800
F0007800
F0007800
F0007800
F0007800
F0007800
F0007800
F0007800
F0007800
F0007800
F0007800
F0007800
F0007800
F0007800
F0007800
F0007800
F0007800
F0007800
F0007800
F0007800
F0007800
F0007FF8
F0007FF8
F0007FF8
F0007FF8
F0000078
F0000078
F0000078
F0000078
F0000078
F0000078
F0000078
F0000078
FFFFFFF8
FFFFFFF8
FFFFFFF8
FFFFFFF8
ENDCHAR
STARTCHAR 006D
ENCODING 109
SWIDTH 635 0
DWIDTH 61 0
BBX 61 77 0 0
BITMAP
FFFFFE0003FFFFF8
FFFFFF800FFFFFF8
FFFFFFC01FFFFFF8
FFFFFFE07FFFFFF8
F00003F0FE000078
F00000F9F8000078
F000007FF0000078
F000003FC0000078
F000001F80000078
F000000F00000078
F000000600000078
F000000200000078
F000000000000078
F000000000080078
F000400000080078
F000600000180078
F000700000380078
F000700000780078
F000780000F80078
F0007C0000F80078
F0007C0001F80078
F0007C0001F80078
F0007E0003F80078
F0007E0003F80078
F0007E0003F80078
F0007F0003F80078
F0007F0007F80078
F0007F0007F80078
F0007F0007F80078
F0007F0007F80078
F0007F0007F80078
F0007F0007F80078
F0007F0007F80078
F0007F0007F80078
F0007F0007F80078
F0007F0007F80078
F0007F0007F80078
F0007F0007F80078
F0007F0007F80078
F0007F0007F80078
F0007F0007F80078
F0007F0007F80078
F0007F0007F80078
F0007F0007F80078
F0007F0007F80078
F0007F0007F80078
F0007F0007F80078
F0007F0007F80078
F0007F0007F80078
F0007F0007F80078
F0007F0007F80078
F0007F0007F80078
F0007F0007F80078
F0007F0007F80078
F0007F0007F80078
F0007F0007F80078
F0007F0007F80078
F0007F0007F80078
F0007F0007F80078
F0007F0007F80078
F0007F0007F80078
F0007F0007F80078
F0007F0007F80078
F0007F0007F80078
F0007F0007F80078
F0007F0007F80078
F0007F0007F80078
F0007F0007F80078
F0007F0007F80078
F0007F0007F80078
F0007F0007F80078
F0007F0007F80078
F0007F0007F80078
FFFFFFFFFFFFFFF8
FFFFFFFFFFFFFFF8
FFFFFFFFFFFFFFF8
FFFFFFFFFFFFFFF8
ENDCHAR
STARTCHAR 006E
ENCODING 110
SWIDTH 416 0
DWIDTH 40 0
BBX 41 77 0 0
BITMAP
FFFC07FFFF80
FFFF87FFFF80
FFFFE7FFFF80
FFFFFFFFFF80
F003FF000780
F0007F000780
F0003F000780
F0000F000780
F00007000780
F00003800780
F00001800780
F00000000780
F00000000780
F00000000780
F00000000780
F00000000780
F00000000780
F00040000780
F00060000780
F00070000780
F00078000780
F0007C000780
F0007C000780
F0007E000780
F0007E000780
F0007E000780
F0007F000780
F0007F000780
F0007F000780
F0007F000780
F0007F000780
F0007F000780
F0007F000780
F0007F000780
F0007F000780
F0007F000780
F0007F000780
F0007F000780
F0007F000780
F0007F000780
F0007F000780
F0007F000780
F0007F000780
F0007F000780
F0007F000780
F0007F000780
F0007F000780
F0007F000780
F0007F000780
F0007F000780
F0007F000780
F0007F000780
F0007F000780
F0007F000780
F0007F000780
F0007F000780
F0007F000780
F0007F000780
F0007F000780
F0007F000780
F0007F000780
F0007F000780
F0007F000780
F0007F000780
F0007F000780
F0007F000780
F0007F000780
F0007F000780
F0007F000780
F0007F000780
F0007F000780
F0007F000780
F0007F000780
FFFFFFFFFF80
FFFFFFFFFF80
FFFFFFFFFF80
FFFFFFFFFF80
ENDCHAR
STARTCHAR 006F
ENCODING 111
SWIDTH 416 0
DWIDTH 40 0
BBX 41 77 0 0
BITMAP
FFFFFFFFC000
FFFFFFFFF000
FFFFFFFFFC00
FFFFFFFFFE00
F00000003F00
F00000000F00
F00000000780
F00000000780
F00000000780
F00000000780
F00000000780
F0007F000780
F0007F000780
F0007F000780
F0007F000780
F0007F000780
F0007F000780
F0007F000780
F0007F000780
F0007F000780
F0007F000780
F0007F000780
F0007F000780
F0007F000780
F0007F000780
F0007F000780
F0007F000780
F0007F000780
F0007F000780
F0007F000780
F0007F000780
F0007F000780
F0007F000780
F0007F000780
F0007F000780
F0007F000780
F0007F000780
F0007F000780
F0007F000780
F0007F000780
F0007F000780
F0007F000780
F0007F000780
F0007F000780
F0007F000780
F0007F000780
F0007F000780
F0007F000780
F0007F000780
F0007F000780
F0007F000780
F0007F000780
F0007F000780
F0007F000780
F0007F000780
F0007F000780
F0007F000780
F0007F000780
F0007F000780
F0007F000780
F0007F000780
F0007F000780
F0007F000780
F0007F000780
F0007F000780
F00000000780
F00000000780
F00000000780
F00000000780
F00000000780
F00000000780
F80000000780
7E0000000780
3FFFFFFFFF80
1FFFFFFFFF80
0FFFFFFFFF80
01FFFFFFFF80
ENDCHAR
STARTCHAR 0070
ENCODING 112
SWIDTH 416 0
DWIDTH 40 0
BBX 41 77 0 0
BITMAP
FFFFFFFF8000
FFFFFFFFE000
FFFFFFFFF800
FFFFFFFFFC00
F0000000FE00
F00000001F00
F00000000F00
F00000000F80
F00000000780
F00000000780
F00000000780
F0007F000780
F0007F000780
F0007F000780
F0007F000780
F0007F000780
F0007F000780
F0007F000780
F0007F000780
F0007F000780
F0007F000780
F0007F000780
F0007F000780
F0007F000780
F0007F000780
F0007F000780
F0007F000780
F0007F000780
F0007F000780
F0007F000780
F0007F000780
F0007F000780
F0007F000780
F0007F000780
F0007F000780
F0007F000780
F0007F000780
F0007F000780
F0007F000780
F0007F000780
F0007F000780
F0007F000780
F0007F000780
F0007F000780
F0007E000780
F0007C000780
F00070000F00
F00060001F00
F00000003E00
F0000000FC00
F0000001F800
F0000007F000
F000001FC000
F000003F8000
F00000FE0000
F00003FC0000
F00007F00000
F0001FC00000
F0007F800000
F0007E000000
F00078000000
F00070000000
F00070000000
F00070000000
F00070000000
F00070000000
F00070000000
F00070000000
F00070000000
F00070000000
F00070000000
F00070000000
F00070000000
FFFFF0000000
FFFFF0000000
FFFFF0000000
FFFFF0000000
ENDCHAR
STARTCHAR 0071
ENCODING 113
SWIDTH 416 0
DWIDTH 40 0
BBX 41 83 -1 -6
BITMAP
FFFFFFFFC000
FFFFFFFFF000
FFFFFFFFFC00
FFFFFFFFFE00
F00000003F00
F00000000F00
F00000000780
F00000000780
F00000000780
F00000000780
F00000000780
F0003F800780
F0003F800780
F0003F800780
F0003F800780
F0003F800780
F0003F800780
F0003F800780
F0003F800780
F0003F800780
F0003F800780
F0003F800780
F0003F800780
F0003F800780
F0003F800780
F0003F800780
F0003F800780
F0003F800780
F0003F800780
F0003F800780
F0003F800780
F0003F800780
F0003F800780
F0003F800780
F0003F800780
F0003F800780
F0003F800780
F0003F800780
F0003F800780
F0003F800780
F0003F800780
F0003F800780
F0003F800780
F0003F800780
F0003F800780
F0003F800780
F0003F800780
F0003F800780
F0003F800780
F0003F800780
F0003F800780
F0003F800780
F0003F800780
F0003F800780
F0003F800780
F0003F800780
F0003F800780
F0003F800780
F0003F800780
F0003F800780
F0003F800780
F0003F800780
F0003F800780
F0003F800780
F0003F800780
F00000000780
F00000000780
F00000000780
F00000000780
F00000000780
F80000000780
FC0000000780
7F8000000780
3FF0007FFF80
0FFF007FFF80
07FFE07FFF80
00FFFC7FFF80
001FFFF80000
0003FFF80000
00003FF80000
000007F80000
000000780000
000000080000
ENDCHAR
STARTCHAR 0072
ENCODING 114
SWIDTH 416 0
DWIDTH 40 0
BBX 41 77 0 0
BITMAP
FFFFFFFFC000
FFFFFFFFF800
FFFFFFFFFC00
FFFFFFFFFE00
F00000007F00
F00000001F00
F00000000F80
F00000000780
F00000000780
F00000000780
F00000000780
F0007F000780
F0007F000780
F0007F000780
F0007F000780
F0007F000780
F0007F000780
F0007F000780
F0007F000780
F0007F000780
F0007F000780
F0007F000780
F0007F000780
F0007F000780
F0007F000780
F0007F000780
F0007F000780
F0007F000780
F0007F000780
F0007F000780
F0007F000780
F0007F000780
F0007F000780
F0007F000780
F0007F000780
F0007F000780
F0007F000780
F0007F000780
F0007F000780
F0007F000780
F0007F000780
F0007F000780
F0007F000780
F0007F000780
F0007E000780
F0007C000780
F00078000F00
F00060001F00
F00040003E00
F00000007C00
F0000001F800
F0000000FC00
F00000003E00
F00000000F00
F00003000780
F0000F000780
F0001F000780
F0007F000780
F0007F000780
F0007F000780
F0007F000780
F0007F000780
F0007F000780
F0007F000780
F0007F000780
F0007F000780
F0007F000780
F0007F000780
F0007F000780
F0007F000780
F0007F000780
F0007F000780
F0007F000780
FFFFFFFFFF80
FFFFFFFFFF80
FFFFFFFFFF80
FFFFFFFFFF80
ENDCHAR
STARTCHAR 0073
ENCODING 115
SWIDTH 416 0
DWIDTH 40 0
BBX 41 77 0 0
BITMAP
01FFFFFFC000
0FFFFFFFF000
1FFFFFFFFC00
3FFFFFFFFE00
7E0000003F00
780000000F00
F00000000780
F00000000780
F00000000780
F00000000780
F00000000780
F0007F000780
F0007F000780
F0007F000780
F0007F000780
F0007F000780
F0007F000780
F0007F000780
F0007F000780
F0007F000780
F0007F000780
F0007F000780
F0007F000780
F0007F000780
F0007F000780
F0007F000780
F0007F000780
F0007F000780
F0007F000780
F0007F000780
F0007F000780
F0007F000780
F0007F000780
F0007F000780
F0007F000780
F0007F000780
F0007F000780
F0007F000780
F0007F000780
F0007F000780
F0007F000780
F0007F000780
F0007FFFFF80
F0007FFFFF80
F0007FFFFF80
F0007FFFFF80
F0007FFFFE00
F00000003F00
F00000000F80
F00000000780
F00000000780
F00000000780
F80000000780
7C0000000780
3F0000000780
1FFFFF000780
FFFFFF000780
FFFFFF000780
FFFFFF000780
FFFFFF000780
F0007F000780
F0007F000780
F0007F000780
F0007F000780
F0007F000780
F0007F000780
F00000000780
F00000000780
F00000000780
F00000000780
F00000000780
F80000000F00
7E0000003F00
3FFFFFFFFE00
1FFFFFFFFC00
0FFFFFFFF800
01FFFFFFC000
ENDCHAR
STARTCHAR 0074
ENCODING 116
SWIDTH 343 0
DWIDTH 33 0
BBX 36 77 -2 0
BITMAP
FFFFFFFFF0
FFFFFFFFF0
FFFFFFFFF0
FFFFFFFFF0
F0000000F0
F0000000F0
F0000000F0
F0000000F0
F0000000F0
F0000000F0
F0000000F0
FFF000FFF0
FFF000FFF0
FFF000FFF0
FFF000FFF0
00F000F000
00F000F000
00F000F000
00F000F000
00F000F000
00F000F000
00F000F000
00F000F000
00F000F000
00F000F000
00F000F000
00F000F000
00F000F000
00F000F000
00F000F000
00F000F000
00F000F000
00F000F000
00F000F000
00F000F000
00F000F000
00F000F000
00F000F000
00F000F000
00F000F000
00F000F000
00F000F000
00F000F000
00F000F000
00F000F000
00F000F000
00F000F000
00F000F000
00F000F000
00F000F000
00F000F000
00F000F000
00F000F000
00F000F000
00F000F000
00F000F000
00F000F000
00F000F000
00F000F000
00F000F000
00F000F000
00F000F000
00F000F000
00F000F000
00F000F000
00F000F000
00F000F000
00F000F000
00F000F000
00F000F000
00F000F000
00F000F000
00F000F000
00FFFFF000
00FFFFF000
00FFFFF000
00FFFFF000
ENDCHAR
STARTCHAR 0075
ENCODING 117
SWIDTH 416 0
DWIDTH 40 0
BBX 42 77 -1 0
BITMAP
FFFFFFFFFFC0
FFFFFFFFFFC0
FFFFFFFFFFC0
FFFFFFFFFFC0
F0007F0003C0
F0007F0003C0
F0007F0003C0
F0007F0003C0
F0007F0003C0
F0007F0003C0
F0007F0003C0
F0007F0003C0
F0007F0003C0
F0007F0003C0
F0007F0003C0
F0007F0003C0
F0007F0003C0
F0007F0003C0
F0007F0003C0
F0007F0003C0
F0007F0003C0
F0007F0003C0
F0007F0003C0
F0007F0003C0
F0007F0003C0
F0007F0003C0
F0007F0003C0
F0007F0003C0
F0007F0003C0
F0007F0003C0
F0007F0003C0
F0007F0003C0
F0007F0003C0
F0007F0003C0
F0007F0003C0
F0007F0003C0
F0007F0003C0
F0007F0003C0
F0007F0003C0
F0007F0003C0
F0007F0003C0
F0007F0003C0
F0007F0003C0
F0007F0003C0
F0007F0003C0
F0007F0003C0
F0007F0003C0
F0007F0003C0
F0007F0003C0
F0007F0003C0
F0007F0003C0
F0007F0003C0
F0007F0003C0
F0007F0003C0
F0007F0003C0
F0007F0003C0
F0007F0003C0
F0007F0003C0
F0007F0003C0
F0007F0003C0
F0007F0003C0
F0007F0003C0
F0007F0003C0
F0007F0003C0
F0007F0003C0
F000000003C0
F000000003C0
F000000003C0
F800000003C0
7800000003C0
7C00000003C0
3F00000003C0
1FF0000003C0
0FFFFFFFFFC0
07FFFFFFFFC0
00FFFFFFFFC0
001FFFFFFFC0
ENDCHAR
STARTCHAR 0076
ENCODING 118
SWIDTH 416 0
DWIDTH 40 0
BBX 42 77 -1 0
BITMAP
FFFFFFFFFFC0
FFFFFFFFFFC0
FFFFFFFFFFC0
FFFFFFFFFFC0
F0007F8003C0
F0007F8003C0
F0007F8003C0
F0007F8003C0
F0007F8003C0
F0007F8003C0
F0007F8003C0
F0007F8003C0
F0007F8003C0
F0007F8003C0
F0007F8003C0
F0007F8003C0
F0007F8003C0
F0007F8003C0
F0007F8003C0
F0007F8003C0
F0007F8003C0
F0007F8003C0
F0007F8003C0
F0007F8003C0
F0007F8003C0
F0007F8003C0
F0007F8003C0
F0007F8003C0
F0007F8003C0
F0007F8003C0
F0007F8003C0
F0007F8003C0
F0007F8003C0
F0007F8003C0
F0007F8003C0
F0007F8003C0
F0007F8003C0
F0007F8003C0
F0007F8003C0
F0007F8003C0
F0007F8003C0
F0007F8003C0
F0007F8003C0
F0007F8003C0
F0007F8003C0
F0007F8003C0
F0007F8003C0
F0007F8003C0
F0007F0003C0
F0007F0003C0
F0007F0003C0
F0003F0003C0
F0003E0003C0
F0003E0003C0
78003E000780
78001E000780
78001E000780
3C001C000F00
3C000C000F00
3C000C000F00
1E000C001E00
1E0000001E00
0F0000003C00
0F0000003C00
078000007800
07C000007800
03C00000F000
01E00000F000
01E00001E000
00F00003C000
00780007C000
003C00078000
003E001F0000
001FFFFE0000
000FFFFE0000
0007FFFC0000
0001FFF00000
ENDCHAR
STARTCHAR 0077
ENCODING 119
SWIDTH 635 0
DWIDTH 61 0
BBX 62 77 -1 0
BITMAP
FFFFFFFFFFFFFFFC
FFFFFFFFFFFFFFFC
FFFFFFFFFFFFFFFC
FFFFFFFFFFFFFFFC
F0007F8003FC003C
F0007F8003FC003C
F0007F8003FC003C
F0007F8003FC003C
F0007F8003FC003C
F0007F8003FC003C
F0007F8003FC003C
F0007F8003FC003C
F0007F8003FC003C
F0007F8003FC003C
F0007F8003FC003C
F0007F8003FC003C
F0007F8003FC003C
F0007F8003FC003C
F0007F8003FC003C
F0007F8003FC003C
F0007F8003FC003C
F0007F8003FC003C
F0007F8003FC003C
F0007F8003FC003C
F0007F8003FC003C
F0007F8003FC003C
F0007F8003FC003C
F0007F8003FC003C
F0007F8003FC003C
F0007F8003FC003C
F0007F8003FC003C
F0007F8003FC003C
F0007F8003FC003C
F0007F8003FC003C
F0007F8003FC003C
F0007F8003FC003C
F0007F8003FC003C
F0007F8003FC003C
F0007F8003FC003C
F0007F8003FC003C
F0007F8003FC003C
F0007F8003FC003C
F0007F8003FC003C
F0007F8003FC003C
F0007F8003FC003C
F0007F8003FC003C
F0007F8003FC003C
F0007F8003FC003C
F0007F8003FC003C
F0007F8003FC003C
F0007F8003FC003C
F0003F8003F8003C
F0003F8003F8003C
F0003F8003F8003C
78003F8003F80078
78001F8003F00078
78001F0001F00078
7C000E0000F000F8
3C000E00006000F0
3C000400006000F0
1E000400000001E0
1E000000000001E0
0F000000000003E0
0F000000000003C0
07800000000007C0
0780000000000780
03C0000300000F80
03E0000780000F00
01E0000FC0001E00
00F0000FE0003E00
00F8001FE0007C00
007C003FF0007800
003E007CF801F800
001FFFF87FFFF000
001FFFF03FFFE000
0007FFF01FFFC000
0003FFE01FFF8000
ENDCHAR
STARTCHAR 0078
ENCODING 120
SWIDTH 416 0
DWIDTH 40 0
BBX 41 77 0 0
BITMAP
FFFFFFFFFF80
FFFFFFFFFF80
FFFFFFFFFF80
FFFFFFFFFF80
F0007F000780
F0007F000780
F0007F000780
F0007F000780
F0007F000780
F0007F000780
F0007F000780
F0007F000780
F0007F000780
F0007F000780
F0007F000780
F0007F000780
F0007F000780
F0007F000780
F0007F000780
F0007F000780
F0007F000780
F0007F000780
F0007F000780
F0007F000780
F0007F000780
F0007F000780
F0007F000780
F0007F000780
F0007F000780
F0007F000780
F0007F000780
F0007F000780
F0007F000780
F0007F000780
F0007F000780
F0007F000780
F0007F000780
F0007F000780
F0007F000780
F0007F000780
F0007F000780
F0007F000780
F0007F000780
F0007F000780
F0007E000780
F0007C000780
F00078000F80
F00060001F00
F80040003E00
7C0000007C00
3F800001F800
1FC00000FE00
1F0000003F00
3E0001000F00
7C0003000780
78000F000780
F0001F000780
F0007F000780
F0007F000780
F0007F000780
F0007F000780
F0007F000780
F0007F000780
F0007F000780
F0007F000780
F0007F000780
F0007F000780
F0007F000780
F0007F000780
F0007F000780
F0007F000780
F0007F000780
F0007F000780
FFFFFFFFFF80
FFFFFFFFFF80
FFFFFFFFFF80
FFFFFFFFFF80
ENDCHAR
STARTCHAR 0079
ENCODING 121
SWIDTH 416 0
DWIDTH 40 0
BBX 42 77 -1 0
BITMAP
FFFFFFFFFFC0
FFFFFFFFFFC0
FFFFFFFFFFC0
FFFFFFFFFFC0
F0003F8003C0
F0003F8003C0
F0003F8003C0
F0003F8003C0
F0003F8003C0
F0003F8003C0
F0003F8003C0
F0003F8003C0
F0003F8003C0
F0003F8003C0
F0003F8003C0
F0003F8003C0
F0003F8003C0
F0003F8003C0
F0003F8003C0
F0003F8003C0
F0003F8003C0
F0003F8003C0
F0003F8003C0
F0003F8003C0
F0003F8003C0
F0003F8003C0
F0003F8003C0
F0003F8003C0
F0003F8003C0
F0003F8003C0
F0003F8003C0
F0003F8003C0
F0003F8003C0
F0003F8003C0
F0003F8003C0
F0003F8003C0
F0003F8003C0
F0003F8003C0
F0003F8003C0
F0003F8003C0
F0003F8003C0
F0003F8003C0
F0003F8003C0
F0003F8003C0
F0003F8003C0
F0003F8003C0
F0003F8003C0
F000000003C0
F000000003C0
F000000003C0
F000000003C0
F000000003C0
F000000003C0
7800000003C0
7E00000003C0
3FFFFF8003C0
1FFFFF8003C0
07FFFF8003C0
01FFFF8003C0
0000078003C0
0000078003C0
7FFFFF8003C0
7FFFFF8003C0
7FFFFF8003C0
7FFFFF8003C0
7800000003C0
7800000003C0
7800000003C0
7800000003C0
7800000003C0
7800000003C0
7800000003C0
7800000003C0
7FFFFFFFFFC0
7FFFFFFFFFC0
7FFFFFFFFFC0
7FFFFFFFFFC0
ENDCHAR
STARTCHAR 007A
ENCODING 122
SWIDTH 416 0
DWIDTH 40 0
BBX 41 77 0 0
BITMAP
FFFFFFFFFF80
FFFFFFFFFF80
FFFFFFFFFF80
FFFFFFFFFF80
F00000000780
F00000000780
F00000000780
F00000000780
F00000000780
F00000000780
F00000000780
FFFFFF800780
FFFFFF000780
FFFFFF000780
FFFFFE000780
00001E000780
00001E000F00
00003C000F00
00003C001F00
000038001E00
000078001E00
000078003C00
0000F0003C00
0000F0007800
0001E0007800
0001E0007800
0001C000F000
0003C000F000
0003C001E000
00078001E000
00078001E000
00070003C000
000F0003C000
000F00078000
001E00078000
001E00078000
001C000F0000
003C000F0000
003C001E0000
0078001E0000
0078001E0000
00F0003C0000
00F0003C0000
00F000780000
01E000780000
01E000780000
03C000F00000
03C000F00000
03C001E00000
078001E00000
078001E00000
0F0003C00000
0F0003C00000
0F0007800000
1E0007800000
1E0007000000
3C000F000000
3C000F000000
3C001E000000
78001E000000
78001C000000
F0003FFFFF80
F0003FFFFF80
F0007FFFFF80
F0007FFFFF80
F00000000780
F00000000780
F00000000780
F00000000780
F00000000780
F00000000780
F00000000780
F00000000780
FFFFFFFFFF80
FFFFFFFFFF80
FFFFFFFFFF80
FFFFFFFFFF80
ENDCHAR
STARTCHAR 007B
ENCODING 123
SWIDTH 354 0
DWIDTH 34 0
BBX 35 77 -1 0
BITMAP
0001FFFFE0
000FFFFFE0
001FFFFFE0
003FFFFFE0
007E0001E0
00780001E0
00F00001E0
00F00001E0
00F00001E0
00F00001E0
00F00001E0
00F000FFE0
00F000FFE0
00F000FFE0
00F000FFE0
00F000F000
00F000F000
00F000F000
00F000F000
00F000F000
00F000F000
00F000F000
00F000F000
00F000F000
00F000F000
00F000F000
00F000F000
00F000F000
00F000F000
00F000F000
00F000F000
00F000F000
FFF000F000
FFF000F000
FFF000F000
FFF000F000
F00000F000
F00001F000
F00003E000
F0000FE000
F00017E000
F00003E000
F00001F000
F00000F000
FFF000F000
FFF000F000
FFF000F000
F8F000F000
00F000F000
00F000F000
00F000F000
00F000F000
00F000F000
00F000F000
00F000F000
00F000F000
00F000F000
00F000F000
00F000F000
00F000F000
00F000F000
00F000F000
00F000FFE0
00F000FFE0
00F000FFE0
00F000FFE0
00F00001E0
00F00001E0
00F00001E0
00F00001E0
00F00001E0
00F80001E0
007E0001E0
003FFFFFE0
001FFFFFE0
000FFFFFE0
0001FFFFE0
ENDCHAR
STARTCHAR 007C
ENCODING 124
SWIDTH 208 0
DWIDTH 20 0
BBX 21 77 0 0
BITMAP
FFFFF8
FFFFF8
FFFFF8
FFFFF8
F00078
F00078
F00078
F00078
F00078
F00078
F00078
F00078
F00078
F00078
F00078
F00078
F00078
F00078
F00078
F00078
F00078
F00078
F00078
F00078
F00078
F00078
F00078
F00078
F00078
F00078
F00078
F00078
F00078
F00078
F00078
F00078
F00078
F00078
F00078
F00078
F00078
F00078
F00078
F00078
F00078
F00078
F00078
F00078
F00078
F00078
F00078
F00078
F00078
F00078
F00078
F00078
F00078
F00078
F00078
F00078
F00078
F00078
F00078
F00078
F00078
F00078
F00078
F00078
F00078
F00078
F00078
F00078
F00078
FFFFF8
FFFFF8
FFFFF8
FFFFF8
ENDCHAR
STARTCHAR 007D
ENCODING 125
SWIDTH 354 0
DWIDTH 34 0
BBX 35 77 0 0
BITMAP
FFFFF00000
FFFFFE0000
FFFFFF0000
FFFFFF8000
F0000FC000
F00003E000
F00001E000
F00001E000
F00001E000
F00001E000
F00001E000
FFE001E000
FFE001E000
FFE001E000
FFE001E000
01E001E000
01E001E000
01E001E000
01E001E000
01E001E000
01E001E000
01E001E000
01E001E000
01E001E000
01E001E000
01E001E000
01E001E000
01E001E000
01E001E000
01E001E000
01E001E000
01E001E000
01E001FFE0
01E001FFE0
01E001FFE0
01E001FFE0
01E00001E0
01F00001E0
00F80001E0
00FE0001E0
00FD0001E0
00F80001E0
01F00001E0
01E00001E0
01E001FFE0
01E001FFE0
01E001FFE0
01E001E000
01E001E000
01E001E000
01E001E000
01E001E000
01E001E000
01E001E000
01E001E000
01E001E000
01E001E000
01E001E000
01E001E000
01E001E000
01E001E000
01E001E000
FFE001E000
FFE001E000
FFE001E000
FFE001E000
F00001E000
F00001E000
F00001E000
F00001E000
F00001E000
F00003E000
F0000FC000
FFFFFF8000
FFFFFF0000
FFFFFE0000
FFFFF00000
ENDCHAR
STARTCHAR 00A0
ENCODING 160
SWIDTH 760 0
DWIDTH 73 0
BBX 0 0 0 0
BITMAP
ENDCHAR
STARTCHAR 00A2
ENCODING 162
SWIDTH 354 0
DWIDTH 34 0
BBX 36 69 -1 4
BITMAP
0007FFF000
0007FFF000
0007FFF000
0007FFF000
000780F000
000780F000
000780F000
000780F000
01FF80FFF0
07FF80FFF0
1FFF80FFF0
3FFF80FFF0
7F000000F0
7C000000F0
F8000000F0
F0000000F0
F0000000F0
F0000000F0
F0000000F0
F0007FFFF0
F0007FFFF0
F0007FFFF0
F0007FFFF0
F000780000
F000780000
F000780000
F000780000
F000780000
F000780000
F000780000
F000780000
F000780000
F000780000
F000780000
F000780000
F000780000
F000780000
F000780000
F000780000
F000780000
F000780000
F000780000
F000780000
F000780000
F000780000
F000780000
F0007FFFF0
F0007FFFF0
F0007FFFF0
F0007FFFF0
F0000000F0
F0000000F0
F0000000F0
F0000000F0
F0000000F0
F0000000F0
78000000F0
7F000000F0
3FFF80FFF0
1FFF80FFF0
07FF80FFF0
01FF80FFF0
000780F000
000780F000
000780F000
0007FFF000
0007FFF000
0007FFF000
0007FFF000
ENDCHAR
STARTCHAR 00A9
ENCODING 169
SWIDTH 833 0
DWIDTH 80 0
BBX 80 77 0 0
BITMAP
01FFFFFFFFFFFFFFFF80
0FFFFFFFFFFFFFFFFFF0
1FFFFFFFFFFFFFFFFFF8
3FFFFFFFFFFFFFFFFFFC
7E00000000000000007E
F800000000000000001E
F000000000000000000F
F000000000000000000F
F000000000000000000F
F000000000000000000F
F000000000000000000F
F000000000000000000F
F000FFFFFFFFFFFF000F
F000FFFFFFFFFFFF000F
F000FFFFFFFFFFFF000F
F000F7FFFFFFFFFF000F
F000FFC00000007F000F
F000FF000000007F000F
F000FE000000007F000F
F000FE000000007F000F
F000FE000000007F000F
F000FE000000007F000F
F000FE000000007F000F
F000FE000FFFFFFF000F
F000FE000FFFFFFF000F
F000FE000FFFFFFF000F
F000FE000FFFFFFF000F
F000FE000F00000F000F
F000FE000F00000F000F
F000FE000F00000F000F
F000FE000F00000F000F
F000FE000F00000F000F
F000FE000F00000F000F
F000FE000F00000F000F
F000FE000F00000F000F
F000FE000F00000F000F
F000FE000F00000F000F
F000FE000F00000F000F
F000FE000F00000F000F
F000FE000F00000F000F
F000FE000F00000F000F
F000FE000F00000F000F
F000FE000F00000F000F
F000FE000F00000F000F
F000FE000F00000F000F
F000FE000F00000F000F
F000FE000F00000F000F
F000FE000F00000F000F
F000FE000F00000F000F
F000FE000F00000F000F
F000FE000FFFFFFF000F
F000FE000FFFFFFF000F
F000FE000FFFFFFF000F
F000FE000FFFFFFF000F
F000FE000000007F000F
F000FE000000007F000F
F000FE000000007F000F
F000FE000000007F000F
F000FE000000007F000F
F000FE000000007F000F
F000FF000000007F000F
F000F7C00000007F000F
F000FFFFFFFFFFFF000F
F000FFFFFFFFFFFF000F
F000FFFFFFFFFFFF000F
F000FFFFFFFFFFFF000F
F000000000000000000F
F000000000000000000F
F000000000000000000F
F000000000000000000F
F000000000000000000F
F800000000000000001F
7E00000000000000007E
3FFFFFFFFFFFFFFFFFFC
1FFFFFFFFFFFFFFFFFF8
0FFFFFFFFFFFFFFFFFF0
01FFFFFFFFFFFFFFFF80
ENDCHAR
STARTCHAR 00AE
ENCODING 174
SWIDTH 833 0
DWIDTH 80 0
BBX 80 77 0 0
BITMAP
01FFFFFFFFFFFFFFFF80
0FFFFFFFFFFFFFFFFFF0
1FFFFFFFFFFFFFFFFFF8
3FFFFFFFFFFFFFFFFFFC
7E00000000000000007E
F800000000000000001E
F000000000000000000F
F000000000000000000F
F000000000000000000F
F000000000000000000F
F000000000000000000F
F000000000000000000F
F0007FFFFFFFFFFE000F
F0007FFFFFFFFFFE000F
F0007FFFFFFFFFFE000F
F0007FFFFFFFFFFE000F
F0007F00000003FE000F
F0007F00000000FE000F
F0007F000000007E000F
F0007F000000007E000F
F0007F000000007E000F
F0007F000000007E000F
F0007F000000007E000F
F0007F0007F0007E000F
F0007F0007F0007E000F
F0007F0007F0007E000F
F0007F0007F0007E000F
F0007F0007F0007E000F
F0007F0007F0007E000F
F0007F0007F0007E000F
F0007F0007F0007E000F
F0007F0007F0007E000F
F0007F0007F0007E000F
F0007F0007F0007E000F
F0007F0007F0007E000F
F0007F0007F0007E000F
F0007F000000007E000F
F0007F000000007E000F
F0007F00000000FE000F
F0007F00000007FE000F
F0007F00000003FE000F
F0007F00000000FE000F
F0007F000000007E000F
F0007F0007F0007E000F
F0007F0007F0007E000F
F0007F0007F0007E000F
F0007F0007F0007E000F
F0007F0007F0007E000F
F0007F0007F0007E000F
F0007F0007F0007E000F
F0007F0007F0007E000F
F0007F0007F0007E000F
F0007F0007F0007E000F
F0007F0007F0007E000F
F0007F0007F0007E000F
F0007F0007F0007E000F
F0007F0007F0007E000F
F0007F0007F0007E000F
F0007F0007F0007E000F
F0007F0007F0007E000F
F0007F0007F0007E000F
F0007F0007F0007E000F
F0007FFFFFFFFFFE000F
F0007FFFFFFFFFFE000F
F0007FFFFFFFFFFE000F
F0007FFFFFFFFFFE000F
F000000000000000000F
F000000000000000000F
F000000000000000000F
F000000000000000000F
F000000000000000000F
F800000000000000001F
7E00000000000000007E
3FFFFFFFFFFFFFFFFFFC
1FFFFFFFFFFFFFFFFFF8
0FFFFFFFFFFFFFFFFFF0
01FFFFFFFFFFFFFFFF80
ENDCHAR
STARTCHAR 00F7
ENCODING 247
SWIDTH 427 0
DWIDTH 41 0
BBX 43 45 -1 18
BITMAP
000FFFFF8000
000FFFFF8000
000FFFFF8000
000FFFFF8000
000F00078000
000F00078000
000F00078000
000F00078000
000F00078000
000F00078000
000F00078000
000F00078000
000FFFFF8000
000FFFFF8000
000FFFFF8000
000FFFFF8000
FFFFFFFFFFE0
FFFFFFFFFFE0
FFFFFFFFFFE0
FFFFFFFFFFE0
F000000001E0
F000000001E0
F000000001E0
F000000001E0
F000000001E0
FFFFFFFFFFE0
FFFFFFFFFFE0
FFFFFFFFFFE0
FFFFFFFFFFE0
FFFFFFFFFFE0
000FFFFF8000
000FFFFF8000
000FFFFF8000
000F00078000
000F00078000
000F00078000
000F00078000
000F00078000
000F00078000
000F00078000
000F00078000
000FFFFF8000
000FFFFF8000
000FFFFF8000
000FFFFF8000
ENDCHAR
STARTCHAR 2018
ENCODING 8216
SWIDTH 343 0
DWIDTH 33 0
BBX 36 30 -2 47
BITMAP
0000FFFFF0
0001FFFFF0
0001FFFFE0
0003FFFFE0
0003C003C0
00078007C0
0007800780
000F000F00
000F000F00
001E001E00
001E001E00
003C003C00
007C003C00
0078007800
00F000F800
00F000F000
01E001F000
01E001E000
03C003C000
03C003C000
0780078000
0780078000
0F000F0000
0E001F0000
1E001E0000
3C003E0000
3FFFFC0000
7FFFFC0000
7FFFF80000
FFFFF00000
ENDCHAR
STARTCHAR 2019
ENCODING 8217
SWIDTH 343 0
DWIDTH 33 0
BBX 36 30 -2 47
BITMAP
0000FFFFF0
0001FFFFF0
0001FFFFE0
0003FFFFE0
0003C003C0
00078007C0
0007800780
000F000F00
000F000F00
001E001E00
001E001E00
003C003C00
007C003C00
0078007800
00F000F800
00F000F000
01E001F000
01E001E000
03C003C000
03C003C000
0780078000
0780078000
0F000F0000
0E001F0000
1E001E0000
3C003E0000
3FFFFC0000
7FFFFC0000
7FFFF80000
FFFFF00000
ENDCHAR
STARTCHAR 201C
ENCODING 8220
SWIDTH 489 0
DWIDTH 47 0
BBX 51 30 -2 47
BITMAP
0000FFFFFFFFE0
0001FFFFFFFFC0
0001FFFFFFFFC0
0003FFFFFFFF80
0003C00FC00780
0007801FC00F00
000F801F800F00
000F003F801E00
001F003F003C00
001E007F003C00
003C007E007800
003C00FC007800
007800FC00F000
007801F800F000
00F003F801E000
00F003F001E000
01E007F003C000
03E007E007C000
03C00FE0078000
07800FC00F8000
07801F800F0000
0F001F801E0000
0F003F001E0000
1E007F003C0000
1E007E003C0000
3C00FE00780000
3FFFFFFFF80000
7FFFFFFFF00000
FFFFFFFFF00000
FFFFFFFFE00000
ENDCHAR
STARTCHAR 201D
ENCODING 8221
SWIDTH 489 0
DWIDTH 47 0
BBX 51 30 -2 47
BITMAP
0000FFFFFFFFE0
0001FFFFFFFFC0
0001FFFFFFFFC0
0003FFFFFFFF80
0003C00FC00780
0007801FC00F00
000F801F800F00
000F003F801E00
001F003F003C00
001E007F003C00
003C007E007800
003C00FC007800
007800FC00F000
007801F800F000
00F003F801E000
00F003F001E000
01E007F003C000
03E007E007C000
03C00FE0078000
07800FC00F8000
07801F800F0000
0F001F801E0000
0F003F001E0000
1E007F003C0000
1E007E003C0000
3C00FE00780000
3FFFFFFFF80000
7FFFFFFFF00000
FFFFFFFFF00000
FFFFFFFFE00000
ENDCHAR
STARTCHAR 2022
ENCODING 8226
SWIDTH 291 0
DWIDTH 28 0
BBX 30 31 -1 21
BITMAP
001FE000
00FFF800
01FFFE00
07FFFF80
0FF03FC0
1FC00FE0
1F0003E0
3E0001F0
3C0000F0
7C0000F8
78000078
F800007C
F000003C
F000003C
F000003C
F000003C
F000003C
F000003C
F000003C
F8000078
78000078
7C0000F8
3C0000F0
3E0001F0
1F0003E0
1FC00FC0
0FF03FC0
07FFFF00
01FFFE00
00FFF800
001FE000
ENDCHAR
STARTCHAR 2026
ENCODING 8230
SWIDTH 895 0
DWIDTH 86 0
BBX 74 16 -1 0
BITMAP
FFFF0007FFF0003FFFC0
FFFF0007FFF0003FFFC0
FFFF0007FFF0003FFFC0
FFFF0007FFF0003FFFC0
F00F000780F0003C03C0
F00F000780F0003C03C0
F00F000780F0003C03C0
F00F000780F0003C03C0
F00F000780F0003C03C0
F00F000780F0003C03C0
F00F000780F0003C03C0
F00F000780F0003C03C0
FFFF0007FFF0003FFFC0
FFFF0007FFF0003FFFC0
FFFF0007FFF0003FFFC0
FFFF0007FFF0003FFFC0
ENDCHAR
STARTCHAR 2122
ENCODING 8482
SWIDTH 541 0
DWIDTH 52 0
BBX 53 34 0 43
BITMAP
FFFFFFFE007FF8
FFFFFFFF00FFF8
FFFFFFFF01FFF8
FFFFFFFF83FFF8
F0001C07C3C078
F0001C03E7C078
F0001C01FF8078
F0001C01FF0078
FF01FC00FF0078
FF01FC007E0078
FF01FC003C0078
FF01FC00380078
0F01FC00180078
0F01FC00000078
0F01FC00000078
0F01FC00000078
0F01FC04008078
0F01FC06018078
0F01FC07018078
0F01FC07838078
0F01FC07C78078
0F01FC07E78078
0F01FC07FF8078
0F01FC07FF8078
0F01FC07FF8078
0F01FC07FF8078
0F01FC07FF8078
0F01FC07B78078
0F01FC07978078
0F01FC07878078
0FFFFFFF87FFF8
0FFFFFFF87FFF8
0FFFFFFF87FFF8
0FFFFFFF87FFF8
ENDCHAR
STARTCHAR F8FF
ENCODING 63743
SWIDTH 1500 0
DWIDTH 144 0
BBX 138 77 5 -3
BITMAP
0000000000001FFFFE000000000000000000
00000000000FFFFFFFFE0000000000000000
0000000000FFE00001FFE000000000000000
000000000FF000000003FE00000000000000
000000003F00000000001FC0000000000000
00000001F0000000000003F0000000F3C000
00000007800000000000007C000001FFE340
0000001E000000000000000F000001886B40
000000780000000000000003C000018862C0
000000E00000000000000000E0003F8C6000
000003800000000000000039FFFFFEDEE000
000007000000000000000FF9FFFFFE7FC000
08400C00000000003FF00FF980C00EF78000
7FF0380000000001FFFE0C1980C00FEF0000
7FF0730000000007CC7F0C1D80C00F000000
C2307F000000010F0C078C0D8FFC7E000000
C210FF0000000F1C0C03CC0D8FFC60000000
C631F90000003F380C01D80D8C7C60000000
6F63E1000001FF607C40F88D8C3C60000000
3FF78100000FE3E1FC70F8878C1C60000000
1FFF0100003FC3C3EC7878C78C1C60000000
03BE0100003DC3878C7878C78C0C60000000
003803003C71C38F0C6878C78C0C60000000
00700E01FC61C30E0C6870C38C0C60000000
00E03001C661C31C0C7870C38FCC60000000
00C067C187C1C3180C7871E38FCC60000000
01C0CFF183C1C3180C70F1E380CC60000000
03819F7983C1C3180C60F1A380CC60000000
0303381D8181C3180C41A1E180CC60000000
0702700D8181C3180C01E0018FCC60000000
060460078081C30C0C0360018FCC60000000
060CE1C78011C38C0C0760018C0C60000000
0C08C1E38011C3860C0760008C0C60000000
0C08C3E38011C3C18C03E3F08C0C60000000
0C10C3638431C3E07C41C378FC0FE0000000
1811C3338431C3F00460C31FFC0FE0000000
181186318671C37804705E1F000180000000
181186318771C33E047BF800000180000000
1831863187F1C30FFCF60000000180000000
1821863187F1C303FFE00000000180000000
1821863187F1C30078000000000180000000
1821863187F1C30000000000000180000000
1821863186B1C30000000000000300000000
1831863186B1FF0000000000000300000000
1831C3318631F80000000000000300000000
1810C363863FC00000000000000300000000
0C10C3E3863C000000000000000600000000
0C18E1E38620000000000000000600000000
0C1861C78E00000000000000000600000000
0C0C6005FC00000000000000000C00000000
060C300DF000000000000000000C00000000
060638198000000000000000001800000000
07071C300000000000000000003800000000
03030FF00000000000000000003000000000
038187C00000000000000000006000000000
01C0C000000000000000000000C000000000
00C07000000000000000000001C000000000
00E038000000000000000000038000000000
00701C000000000000000000070000000000
00380F8000000000000000000E0000000000
001C03C00000000000000000180000000000
000E00C00000000000000000700000000000
000780E00000000000000000E00000000000
0003C0F80000000000000000800000000000
0000F0DE0000000000000000800000000000
000078C7C000000000000000800000000000
00001FC1F8000000000003C0800000000000
000007C07F00000000001FC1800000000000
000001C00FF000000001FCE1000000000000
0000004000FFE00001FFC0E3000000000000
00000000000FFFFFFFFC00E2000000000000
0000000000001FFFFE0000E6000000000000
0000000000000000000000CC000000000000
0000000000000000000001F8000000000000
0000000000000000000003F0000000000000
0000000000000000000007C0000000000000
000000000000000000000700000000000000
ENDCHAR
ENDFONT
